<?xml version="1.0" encoding="UTF-8" standalone="no"?>
<svg
   xmlns:dc="http://purl.org/dc/elements/1.1/"
   xmlns:cc="http://creativecommons.org/ns#"
   xmlns:rdf="http://www.w3.org/1999/02/22-rdf-syntax-ns#"
   xmlns:svg="http://www.w3.org/2000/svg"
   xmlns="http://www.w3.org/2000/svg"
   xmlns:sodipodi="http://sodipodi.sourceforge.net/DTD/sodipodi-0.dtd"
   xmlns:inkscape="http://www.inkscape.org/namespaces/inkscape"
   height="32"
   id="clock"
   viewBox="0 0 32 32"
   width="32"
   version="1.1"
   sodipodi:docname="asbru_history.svg"
   inkscape:version="0.92.3 (2405546, 2018-03-11)">
  <metadata
     id="metadata9">
    <rdf:RDF>
      <cc:Work
         rdf:about="">
        <dc:format>image/svg+xml</dc:format>
        <dc:type
           rdf:resource="http://purl.org/dc/dcmitype/StillImage" />
        <dc:title></dc:title>
      </cc:Work>
    </rdf:RDF>
  </metadata>
  <defs
     id="defs7" />
  <sodipodi:namedview
     pagecolor="#ffffff"
     bordercolor="#666666"
     borderopacity="1"
     objecttolerance="10"
     gridtolerance="10"
     guidetolerance="10"
     inkscape:pageopacity="0"
     inkscape:pageshadow="2"
     inkscape:window-width="1920"
     inkscape:window-height="1021"
     id="namedview5"
     showgrid="false"
     inkscape:zoom="26.0625"
     inkscape:cx="3.2613909"
     inkscape:cy="16"
     inkscape:window-x="0"
     inkscape:window-y="30"
     inkscape:window-maximized="1"
     inkscape:current-layer="clock" />
  <ellipse
     style="opacity:1;fill:#ffffff;fill-opacity:1;fill-rule:nonzero;stroke:none;stroke-width:7.09063911;stroke-linecap:round;stroke-linejoin:round;stroke-miterlimit:4;stroke-dasharray:none;stroke-opacity:1;paint-order:stroke fill markers"
     id="path812"
     cx="15.894855"
     cy="15.875745"
     rx="12.344953"
     ry="12.402431" />
  <path
     d="M 16,0 C 7.163444,0 0,7.163444 0,16 0,24.836556 7.163444,32 16,32 24.836556,32 32,24.836556 32,16 32,7.163444 24.836556,0 16,0 m 0,4 C 22.627417,4 28,9.372583 28,16 28,22.627417 22.627417,28 16,28 9.372583,28 4,22.627417 4,16 4,9.372583 9.372583,4 16,4 m -2,2 0.613909,10.981415 7.846523,4.289568 0.446643,-0.775779 L 16.35012,16.016187 14.776979,5.8848921 Z"
     id="path2"
     style="fill:#333333"
     inkscape:connector-curvature="0"
     sodipodi:nodetypes="csssccssscccccccc" />
</svg>
