<?xml version="1.0" encoding="UTF-8" standalone="no"?>
<svg
   xmlns:dc="http://purl.org/dc/elements/1.1/"
   xmlns:cc="http://creativecommons.org/ns#"
   xmlns:rdf="http://www.w3.org/1999/02/22-rdf-syntax-ns#"
   xmlns:svg="http://www.w3.org/2000/svg"
   xmlns="http://www.w3.org/2000/svg"
   xmlns:sodipodi="http://sodipodi.sourceforge.net/DTD/sodipodi-0.dtd"
   xmlns:inkscape="http://www.inkscape.org/namespaces/inkscape"
   enable-background="new 0 0 200 200"
   height="32"
   id="Layer_1"
   version="1.1"
   viewBox="0 0 32 32"
   width="32"
   xml:space="preserve"
   sodipodi:docname="asbru_method_sftp.svg"
   inkscape:version="0.92.3 (2405546, 2018-03-11)"><metadata
     id="metadata9"><rdf:RDF><cc:Work
         rdf:about=""><dc:format>image/svg+xml</dc:format><dc:type
           rdf:resource="http://purl.org/dc/dcmitype/StillImage" /><dc:title></dc:title></cc:Work></rdf:RDF></metadata><defs
     id="defs7" /><sodipodi:namedview
     pagecolor="#ffffff"
     bordercolor="#666666"
     borderopacity="1"
     objecttolerance="10"
     gridtolerance="10"
     guidetolerance="10"
     inkscape:pageopacity="0"
     inkscape:pageshadow="2"
     inkscape:window-width="1920"
     inkscape:window-height="1021"
     id="namedview5"
     showgrid="false"
     inkscape:zoom="26.0625"
     inkscape:cx="3.2997602"
     inkscape:cy="16"
     inkscape:window-x="0"
     inkscape:window-y="30"
     inkscape:window-maximized="1"
     inkscape:current-layer="Layer_1" /><path
     d="m 31.498797,7.6600216 v 5.3654454 c -0.20336,0.858595 -0.653945,1.647139 -1.319515,2.286746 -0.9362,0.898426 -2.18395,1.39359 -3.511525,1.39359 h -8.34706 v -1.633501 c 0,-0.690285 -0.564975,-1.255036 -1.255345,-1.255036 h -2.133265 c -0.69006,0 -1.25488,0.564906 -1.25488,1.255036 v 1.633501 H 5.3296859 c -1.327575,0 -2.575015,-0.495164 -3.511525,-1.39359 -0.66619,-0.638677 -1.116,-1.427841 -1.31936,-2.286126 V 7.6600216 c 0,-1.1566239 0.94705,-2.1035584 2.10397,-2.1035584 H 29.395137 c 1.156765,0 2.10366,0.9469345 2.10366,2.1035584 z M 17.065507,19.594186 c 0.110515,0 0.20274,-0.09237 0.20274,-0.202715 V 17.75766 16.705803 15.072302 c 0,-0.110346 -0.09222,-0.203335 -0.20274,-0.203335 h -2.13342 c -0.11005,0 -0.20336,0.09299 -0.20336,0.203335 v 1.633501 1.051857 1.633811 c 0,0.110346 0.09331,0.202715 0.20336,0.202715 z m 13.84274,-3.52334 c -1.13398,1.087502 -2.63903,1.686969 -4.24049,1.686969 h -8.34706 v 1.633811 c 0,0.689356 -0.564975,1.254572 -1.255345,1.254572 h -2.133265 c -0.69006,0 -1.25488,-0.565062 -1.25488,-1.254572 V 17.757815 H 5.3296859 c -1.60115,0 -3.10651,-0.599467 -4.240335,-1.686969 -0.21545,-0.2069 -0.41261,-0.426508 -0.59055,-0.656965 v 11.389406 c 0,1.157553 0.94705,2.103713 2.10397,2.103713 H 29.395137 c 1.156765,0 2.10366,-0.94616 2.10366,-2.103713 V 15.413881 c -0.17825,0.230457 -0.374635,0.450065 -0.59055,0.656965 z M 20.849677,1.9653962 C 20.438617,1.5543863 19.899992,1.3490364 19.361832,1.3490364 h -6.72545 c -0.53847,0 -1.077405,0.2053499 -1.488155,0.6163598 -0.41044,0.4106999 -0.61597,0.9491042 -0.61597,1.4873536 v 1.0518567 h 1.787925 V 3.4527498 c 0,-0.059668 0.01628,-0.1469221 0.093,-0.2231728 0.07595,-0.076251 0.16306,-0.092834 0.2232,-0.092834 h 6.725605 c 0.05921,0 0.14663,0.016583 0.222735,0.092834 0.07657,0.076251 0.09285,0.163505 0.09285,0.2231728 v 1.0518567 h 1.787925 V 3.4527498 c -1.6e-4,-0.5382494 -0.20538,-1.0764987 -0.61582,-1.4873536 z"
     id="path2"
     inkscape:connector-curvature="0"
     style="fill:#447821;stroke:#ffffff;stroke-width:0.99999994;stroke-opacity:1" /></svg>