<?xml version="1.0" encoding="UTF-8" standalone="no"?>
<svg
   xmlns:dc="http://purl.org/dc/elements/1.1/"
   xmlns:cc="http://creativecommons.org/ns#"
   xmlns:rdf="http://www.w3.org/1999/02/22-rdf-syntax-ns#"
   xmlns:svg="http://www.w3.org/2000/svg"
   xmlns="http://www.w3.org/2000/svg"
   xmlns:sodipodi="http://sodipodi.sourceforge.net/DTD/sodipodi-0.dtd"
   xmlns:inkscape="http://www.inkscape.org/namespaces/inkscape"
   id="Layer_1"
   version="1.1"
   viewBox="0 0 16 16"
   xml:space="preserve"
   sodipodi:docname="asbru_group.svg"
   width="16"
   height="16"
   inkscape:version="0.92.3 (2405546, 2018-03-11)"><metadata
     id="metadata12"><rdf:RDF><cc:Work
         rdf:about=""><dc:format>image/svg+xml</dc:format><dc:type
           rdf:resource="http://purl.org/dc/dcmitype/StillImage" /><dc:title></dc:title></cc:Work></rdf:RDF></metadata><defs
     id="defs10" /><sodipodi:namedview
     pagecolor="#ffffff"
     bordercolor="#666666"
     borderopacity="1"
     objecttolerance="10"
     gridtolerance="10"
     guidetolerance="10"
     inkscape:pageopacity="0"
     inkscape:pageshadow="2"
     inkscape:window-width="1920"
     inkscape:window-height="1021"
     id="namedview8"
     showgrid="false"
     inkscape:zoom="26.0625"
     inkscape:cx="3.2997602"
     inkscape:cy="15.329531"
     inkscape:window-x="0"
     inkscape:window-y="30"
     inkscape:window-maximized="1"
     inkscape:current-layer="Layer_1" /><g
     id="g827"><g
       style="stroke-width:1.83294618"
       transform="matrix(0.5,0,0,0.59529269,-0.00321098,-1.2128869)"
       id="g839"><path
         inkscape:connector-curvature="0"
         id="XMLID_433_"
         d="m 15.993578,4.267984 c -6.048,0 -11.616,2.112 -15.99999996,5.632 l 1.99039996,1.9904 c 3.8656,-3.0208 8.736,-4.8256 14.0096,-4.8256 5.2736,0 10.144,1.8048 14.0096,4.8256 l 1.9904,-1.9904 c -4.384,-3.52 -9.952,-5.632 -16,-5.632 z"
         style="fill:#afc6e9;stroke-width:1.83294618" /><path
         inkscape:connector-curvature="0"
         id="XMLID_432_"
         d="m 4.300778,14.207184 2.0032,2.0032 c 2.7392,-1.952 6.08,-3.104 9.6896,-3.104 3.6096,0 6.9504,1.152 9.6896,3.104 l 2.0032,-2.0032 c -3.264,-2.4448 -7.3088,-3.8912 -11.6928,-3.8912 -4.384,0 -8.4288,1.4464 -11.6928,3.8912 z"
         style="fill:#5f8dd3;stroke-width:1.83294618" /><path
         inkscape:connector-curvature="0"
         id="XMLID_431_"
         d="m 8.639978,18.546384 2.0288,2.0288 c 1.568,-0.9024 3.3856,-1.4208 5.3184,-1.4208 1.9328,0 3.7504,0.5184 5.3184,1.4208 l 2.0288,-2.0288 c -2.1184,-1.3824 -4.64,-2.1888 -7.3536,-2.1888 -2.7136,0 -5.2224,0.8064 -7.3408,2.1888 z"
         style="fill:#2c5aa0;stroke-width:1.83294618" /></g><circle
       style="fill:#214478;stroke-width:1"
       cx="7.993578"
       cy="13.313767"
       id="XMLID_430_"
       r="1.4144" /></g></svg>