<?xml version="1.0" encoding="UTF-8" standalone="no"?>
<svg
   xmlns:dc="http://purl.org/dc/elements/1.1/"
   xmlns:cc="http://creativecommons.org/ns#"
   xmlns:rdf="http://www.w3.org/1999/02/22-rdf-syntax-ns#"
   xmlns:svg="http://www.w3.org/2000/svg"
   xmlns="http://www.w3.org/2000/svg"
   xmlns:sodipodi="http://sodipodi.sourceforge.net/DTD/sodipodi-0.dtd"
   xmlns:inkscape="http://www.inkscape.org/namespaces/inkscape"
   height="32px"
   version="1.1"
   viewBox="0 0 32 32"
   width="32px"
   id="svg11"
   sodipodi:docname="asbru_method_telnet.svg"
   inkscape:version="0.92.3 (2405546, 2018-03-11)">
  <metadata
     id="metadata15">
    <rdf:RDF>
      <cc:Work
         rdf:about="">
        <dc:format>image/svg+xml</dc:format>
        <dc:type
           rdf:resource="http://purl.org/dc/dcmitype/StillImage" />
        <dc:title></dc:title>
      </cc:Work>
    </rdf:RDF>
  </metadata>
  <sodipodi:namedview
     pagecolor="#ffffff"
     bordercolor="#666666"
     borderopacity="1"
     objecttolerance="10"
     gridtolerance="10"
     guidetolerance="10"
     inkscape:pageopacity="0"
     inkscape:pageshadow="2"
     inkscape:window-width="1920"
     inkscape:window-height="1021"
     id="namedview13"
     showgrid="false"
     inkscape:zoom="26.0625"
     inkscape:cx="16"
     inkscape:cy="16"
     inkscape:window-x="0"
     inkscape:window-y="30"
     inkscape:window-maximized="1"
     inkscape:current-layer="svg11" />
  <desc
     id="desc4" />
  <defs
     id="defs6" />
  <g
     id="Page-1"
     style="fill:#d40000;fill-rule:evenodd;stroke:none;stroke-width:0.96875012"
     transform="matrix(1.0322581,0,0,1.0322581,-0.5161296,-1.0322586)">
    <g
       id="icon-115-lock-open"
       style="fill:#d40000;stroke-width:0.96875012">
      <path
         d="m 20,23.914647 v 2.594348 C 20,26.780169 20.231934,27 20.5,27 20.776142,27 21,26.772119 21,26.508995 V 23.914647 C 21.582596,23.708729 22,23.153109 22,22.5 22,21.671573 21.328427,21 20.5,21 19.671573,21 19,21.671573 19,22.5 c 0,0.653109 0.417404,1.208729 1,1.414647 z M 13,8.4999175 C 13,6.0146817 10.980224,4 8.5,4 6.0147186,4 4,6.0168811 4,8.4999175 V 10 12.499167 C 4,13.321455 3.3284271,14 2.5,14 1.6657972,14 1,13.328054 1,12.499167 V 10 8.499235 C 1,4.3567048 4.3578644,1 8.5,1 12.633707,1 16,4.3575219 16,8.499235 V 16 H 27.991212 C 29.65441,16 31,17.347389 31,19.009478 v 9.981044 C 31,30.663369 29.65292,32 27.991212,32 H 13.008788 C 11.34559,32 10,30.652611 10,28.990522 v -9.981044 c 0,-1.669897 1.342334,-3.004763 3,-3.009466 z"
         id="lock-open"
         style="fill:#d40000;stroke-width:0.96875012"
         inkscape:connector-curvature="0" />
    </g>
  </g>
</svg>
