<?xml version="1.0" encoding="UTF-8" standalone="no"?>
<svg
   xmlns:dc="http://purl.org/dc/elements/1.1/"
   xmlns:cc="http://creativecommons.org/ns#"
   xmlns:rdf="http://www.w3.org/1999/02/22-rdf-syntax-ns#"
   xmlns:svg="http://www.w3.org/2000/svg"
   xmlns="http://www.w3.org/2000/svg"
   xmlns:sodipodi="http://sodipodi.sourceforge.net/DTD/sodipodi-0.dtd"
   xmlns:inkscape="http://www.inkscape.org/namespaces/inkscape"
   height="50"
   version="1.1"
   viewBox="0 0 50 50"
   width="50"
   xml:space="preserve"
   id="svg8"
   sodipodi:docname="asbru-scripts-manager.svg"
   inkscape:version="0.92.3 (2405546, 2018-03-11)"><metadata
     id="metadata14"><rdf:RDF><cc:Work
         rdf:about=""><dc:format>image/svg+xml</dc:format><dc:type
           rdf:resource="http://purl.org/dc/dcmitype/StillImage" /><dc:title></dc:title></cc:Work></rdf:RDF></metadata><defs
     id="defs12" /><sodipodi:namedview
     pagecolor="#ffffff"
     bordercolor="#666666"
     borderopacity="1"
     objecttolerance="10"
     gridtolerance="10"
     guidetolerance="10"
     inkscape:pageopacity="0"
     inkscape:pageshadow="2"
     inkscape:window-width="1920"
     inkscape:window-height="1021"
     id="namedview10"
     showgrid="false"
     inkscape:zoom="12.977448"
     inkscape:cx="26.865016"
     inkscape:cy="24.757956"
     inkscape:window-x="0"
     inkscape:window-y="30"
     inkscape:window-maximized="1"
     inkscape:current-layer="svg8" /><rect
     style="opacity:1;fill:#ffffff;fill-opacity:1;fill-rule:nonzero;stroke:none;stroke-width:7.55905533;stroke-linecap:round;stroke-linejoin:round;stroke-miterlimit:4;stroke-dasharray:none;stroke-opacity:1;paint-order:stroke fill markers"
     id="rect816"
     width="37.294964"
     height="46.987442"
     x="5.9805918"
     y="0.37190047" /><path
     d="M 43.435991,2.8232009 H 40.690016 9.2413148 V 47.792534 50.052677 H 43.435991 Z M 28.627135,30.614031 c -0.587239,-0.587109 -1.397342,-0.95174 -2.288162,-0.95174 -0.895317,0 -1.705421,0.364631 -2.288674,0.95174 -0.58724,0.583384 -0.947757,1.393487 -0.947757,2.288677 0,0.891203 0.360388,1.70118 0.947757,2.288675 0.583253,0.583256 1.393357,0.947885 2.288674,0.947885 0.89082,0 1.700923,-0.364629 2.288162,-0.947885 0.58724,-0.587367 0.948142,-1.397472 0.948142,-2.288675 0,-0.89519 -0.360902,-1.705293 -0.948142,-2.288677 z m -2.288162,-1.944226 c 1.16651,0 2.227755,0.474008 2.993261,1.239643 0.765505,0.765506 1.239641,1.822766 1.239641,2.99326 0,1.166508 -0.474007,2.227881 -1.239641,2.993388 -0.765378,0.765506 -1.826751,1.239513 -2.993261,1.239513 -1.170879,0 -2.227755,-0.474007 -2.993645,-1.239513 -0.765505,-0.765507 -1.239511,-1.82688 -1.239511,-2.993388 0,-1.170494 0.474006,-2.227754 1.239511,-2.99326 0.76589,-0.765635 1.822639,-1.239643 2.993645,-1.239643 z m -10.673506,4.961778 v -1.887416 l 2.884013,-0.433521 0.109247,-0.46578 0.138038,-0.461669 -2.280579,-1.814799 1.158412,-2.005016 2.713971,1.065229 0.328001,-0.348308 0.352677,-0.328129 -1.069471,-2.713842 2.005018,-1.158412 1.818654,2.280322 0.457812,-0.13778 0.465524,-0.109249 0.433521,-2.884012 h 2.31708 l 0.433522,2.884012 0.465394,0.109249 0.457941,0.13778 1.818654,-2.280322 2.005018,1.158412 -1.069471,2.713842 0.352806,0.328129 0.323887,0.348308 2.718085,-1.065229 1.158413,2.005016 -2.284694,1.814799 0.142024,0.461669 0.109247,0.46578 2.884011,0.433521 v 2.316825 l -2.884011,0.433263 -0.109247,0.461925 -0.142024,0.461796 2.284694,1.814541 -1.158413,2.009259 -2.718085,-1.069341 -0.323887,0.348307 -0.352806,0.327999 1.069471,2.713972 -2.005018,1.15854 -1.818654,-2.28045 -0.457941,0.137652 -0.465394,0.113361 -0.433522,2.884012 h -2.31708 l -0.433521,-2.888125 -0.465524,-0.109376 -0.457812,-0.137653 -1.818654,2.280452 -2.005018,-1.158541 1.069471,-2.713971 -0.348693,-0.328001 c -0.113231,-0.109377 -0.222737,-0.22685 -0.327872,-0.348308 l -2.718084,1.069343 -1.158412,-2.009259 2.280579,-1.814541 -0.138038,-0.461797 -0.109247,-0.461925 -2.884013,-0.433264 z m 0.996339,-0.728875 v 0.299723 l 2.750603,0.413213 0.0563,0.364504 c 0.0365,0.247284 0.08933,0.490201 0.150247,0.720905 0.06439,0.247158 0.141637,0.482234 0.230963,0.704842 l 0.129427,0.340211 -2.17493,1.733568 0.30358,0.522461 2.588144,-1.016646 0.230961,0.283401 c 0.146136,0.182508 0.312192,0.368743 0.494444,0.54701 0.174023,0.178267 0.360388,0.344323 0.550736,0.498171 l 0.283659,0.230833 -1.016647,2.5884 0.522334,0.299726 1.733954,-2.171203 0.340082,0.129811 c 0.218752,0.08496 0.457812,0.161945 0.700472,0.226722 0.247155,0.0649 0.486214,0.117474 0.725404,0.153976 l 0.360389,0.05668 0.417326,2.750346 h 0.603561 l 0.413086,-2.750346 0.36039,-0.05668 c 0.247284,-0.04049 0.490329,-0.08907 0.721291,-0.153976 0.250757,-0.06478 0.485702,-0.141765 0.708568,-0.226722 l 0.340083,-0.129811 1.729842,2.171203 0.522332,-0.299726 -1.016775,-2.592384 0.283787,-0.226849 c 0.186235,-0.153848 0.372471,-0.319904 0.550737,-0.498171 0.182251,-0.182379 0.348693,-0.364502 0.494314,-0.54701 l 0.230963,-0.283401 2.588272,1.016646 0.303581,-0.522461 -2.17506,-1.733568 0.129426,-0.340211 c 0.08521,-0.226849 0.166443,-0.461926 0.230963,-0.704842 0.06092,-0.230704 0.113746,-0.473748 0.150249,-0.720905 l 0.05642,-0.364504 2.750473,-0.413213 v -0.603432 l -2.750473,-0.413214 -0.05642,-0.360518 c -0.0365,-0.251142 -0.08933,-0.490072 -0.150249,-0.725147 -0.06452,-0.243046 -0.145749,-0.477864 -0.230963,-0.704713 l -0.129426,-0.34021 2.17506,-1.729586 -0.303581,-0.526573 -2.588272,1.020631 -0.230963,-0.287514 c -0.145626,-0.182251 -0.312068,-0.364632 -0.494319,-0.546883 -0.178266,-0.178266 -0.364502,-0.344194 -0.550737,-0.498168 l -0.283787,-0.22685 1.016775,-2.588401 -0.522332,-0.303709 -1.729842,2.171073 -0.340083,-0.129682 c -0.222736,-0.08496 -0.457811,-0.161944 -0.708568,-0.226851 -0.230962,-0.06066 -0.474007,-0.11336 -0.721291,-0.153717 l -0.36039,-0.0527 -0.413086,-2.750344 h -0.603561 l -0.417326,2.746361 -0.360389,0.05668 c -0.23906,0.03637 -0.47812,0.08907 -0.725404,0.153717 -0.24266,0.06491 -0.48172,0.141894 -0.700472,0.226851 l -0.340082,0.133668 -1.733954,-2.175059 -0.522334,0.303709 1.016647,2.588401 -0.283659,0.22685 c -0.190348,0.153974 -0.376713,0.324016 -0.550736,0.498168 -0.182252,0.182251 -0.348179,0.364632 -0.494444,0.546883 l -0.230961,0.287514 -2.588144,-1.020631 -0.30358,0.526573 2.17493,1.729586 -0.129427,0.34021 c -0.08933,0.222737 -0.166443,0.457684 -0.230963,0.704713 -0.06092,0.230962 -0.113746,0.474005 -0.150247,0.721035 l -0.0563,0.364502 -2.750603,0.413214 z M 12.817828,6.7685876 c -0.275176,0 -0.498041,-0.2228652 -0.498041,-0.4943144 0,-0.2754326 0.222865,-0.498169 0.498041,-0.498169 h 9.369089 c 0.27556,0 0.498426,0.2227364 0.498426,0.498169 0,0.2713203 -0.222866,0.4943144 -0.498426,0.4943144 z m 0,3.0986535 c -0.275176,0 -0.498041,-0.222867 -0.498041,-0.4983 0,-0.27556 0.222865,-0.498169 0.498041,-0.498169 h 9.369089 c 0.27556,0 0.498426,0.222609 0.498426,0.498169 0,0.275433 -0.222866,0.4983 -0.498426,0.4983 z m 0,3.3375809 c -0.275176,0 -0.498041,-0.222736 -0.498041,-0.498169 0,-0.27132 0.222865,-0.498299 0.498041,-0.498299 h 26.555559 c 0.275691,0 0.498427,0.226979 0.498427,0.498299 0,0.275433 -0.222736,0.498169 -0.498427,0.498169 z m 0,3.341825 c -0.275176,0 -0.498041,-0.222865 -0.498041,-0.498299 0,-0.27556 0.222865,-0.498298 0.498041,-0.498298 h 26.555559 c 0.275691,0 0.498427,0.222738 0.498427,0.498298 0,0.275434 -0.222736,0.498299 -0.498427,0.498299 z m 0,3.337583 c -0.275176,0 -0.498041,-0.222736 -0.498041,-0.494185 0,-0.275561 0.222865,-0.498169 0.498041,-0.498169 h 26.555559 c 0.275691,0 0.498427,0.222608 0.498427,0.498169 0,0.27132 -0.222736,0.494185 -0.498427,0.494185 z M 8.7428888,1.8267331 H 40.179379 V 0.05267758 H 37.676321 5.9805918 V 45.188069 47.282284 h 2.264384 V 2.325031 c 0,-0.2755615 0.222737,-0.4982979 0.497913,-0.4982979 z"
     style="clip-rule:evenodd;fill:#ffcc00;fill-rule:evenodd;stroke-width:1"
     id="path2"
     inkscape:connector-curvature="0"
     sodipodi:nodetypes="ccccccccscscscscscscscscscccccccccccccccccccccccccccccccccccccccccccccccccccccccccccccccccccccccccccccccccccccccccccccccccccccccccccccccccccsccccccccccccccccccccccccccccccccsssssssssssssssssssssssssssssssssssscccccccss" /><g
     id="Layer_1"
     transform="translate(0,-462)" /></svg>