<?xml version="1.0" encoding="UTF-8" standalone="no"?>
<!-- Created with Inkscape (http://www.inkscape.org/) -->

<svg
   xmlns:dc="http://purl.org/dc/elements/1.1/"
   xmlns:cc="http://creativecommons.org/ns#"
   xmlns:rdf="http://www.w3.org/1999/02/22-rdf-syntax-ns#"
   xmlns:svg="http://www.w3.org/2000/svg"
   xmlns="http://www.w3.org/2000/svg"
   xmlns:sodipodi="http://sodipodi.sourceforge.net/DTD/sodipodi-0.dtd"
   xmlns:inkscape="http://www.inkscape.org/namespaces/inkscape"
   id="svg3389"
   sodipodi:docname="asbru-wol.svg"
   viewBox="0 0 50 50"
   version="1.1"
   inkscape:version="0.92.3 (2405546, 2018-03-11)"
   width="50"
   height="50">
  <defs
     id="defs3391">
    <filter
       id="filter18963-0"
       width="1.122"
       y="-2.1965001"
       x="-0.061012998"
       height="5.3929"
       inkscape:collect="always"
       style="color-interpolation-filters:sRGB">
      <feGaussianBlur
         id="feGaussianBlur18965-9"
         stdDeviation="3.889576"
         inkscape:collect="always" />
    </filter>
    <linearGradient
       id="linearGradient3534"
       y2="1186.4"
       gradientUnits="userSpaceOnUse"
       y1="1113.2"
       gradientTransform="matrix(0.4426619,0,0,0.4380449,-698.43282,-277.88632)"
       x2="1627.3"
       x1="1577"
       inkscape:collect="always">
      <stop
         id="stop18945-8"
         style="stop-color:#ffffff"
         offset="0" />
      <stop
         id="stop18947-2"
         style="stop-color:#ffffff;stop-opacity:0"
         offset="1" />
    </linearGradient>
    <filter
       id="filter22422-4"
       inkscape:collect="always"
       style="color-interpolation-filters:sRGB">
      <feGaussianBlur
         id="feGaussianBlur22424-5"
         stdDeviation="1.2317302"
         inkscape:collect="always" />
    </filter>
  </defs>
  <sodipodi:namedview
     id="base"
     bordercolor="#666666"
     inkscape:pageshadow="2"
     inkscape:window-y="28"
     pagecolor="#ffffff"
     inkscape:window-height="1412"
     inkscape:window-maximized="1"
     inkscape:zoom="15.839192"
     inkscape:window-x="0"
     showgrid="false"
     borderopacity="1.0"
     inkscape:current-layer="layer4"
     inkscape:cx="48.633059"
     inkscape:cy="18.175828"
     inkscape:window-width="2560"
     inkscape:pageopacity="0.0"
     inkscape:document-units="px" />
  <g
     id="layer5"
     inkscape:label="background"
     inkscape:groupmode="layer"
     transform="translate(0,-220)">
    <rect
       id="rect17756"
       style="fill:#333333;stroke-width:0.18394427"
       ry="6.839232"
       height="42.779919"
       width="43.030083"
       y="220.75952"
       x="1.3548651" />
  </g>
  <g
     id="layer2"
     inkscape:label="shadow"
     inkscape:groupmode="layer"
     transform="translate(0,-220)">
    <ellipse
       id="path18953"
       style="fill:#000000;filter:url(#filter18963-0)"
       transform="matrix(0.25662065,0,0,0.31141765,-422.33246,-423.69894)"
       cx="1732.25"
       cy="2215.875"
       rx="76.5"
       ry="2.125" />
    <path
       id="rect17756-0"
       sodipodi:nodetypes="ccccccc"
       style="fill:url(#linearGradient3534);stroke-width:0.18394427"
       d="m 8.758788,221.43317 h 28.835103 c 2.957272,0.13552 4.239916,1.46697 4.239916,1.46697 -21.273155,15.17173 -33.628692,27.95218 -36.9470465,39.28499 0,0 -2.9053997,-3.22289 -2.9053997,-5.51152 v -28.53528 c -0.2630219,-3.71512 2.6876097,-6.99135 6.7766902,-6.70606 z"
       inkscape:connector-curvature="0" />
    <g
       id="g16145-0-1-0"
       style="fill:none;stroke:#ffffff;stroke-width:1.57270002;filter:url(#filter22422-4)"
       transform="matrix(0.26451186,0,0,0.26298512,117.77759,404.6941)">
      <path
         id="rect15862-1-3-9"
         style="fill:none;stroke:#ffffff;stroke-width:1.57270002"
         d="m -397.75,-670.05 c -6.2826,0 -11.358,5.0754 -11.358,11.358 v 16.04 c 0,6.2826 5.0754,11.358 11.358,11.358 h 3.6415 v 8.9304 h -18.641 v 8.5836 h 50.287 v 8.9737 h -4.3785 c -6.2826,0 -11.315,5.0321 -11.315,11.315 v 16.083 c 0,6.2826 5.0321,11.315 11.315,11.315 h 16.083 c 6.2826,0 11.315,-5.0321 11.315,-11.315 v -16.083 c 0,-6.2826 -5.0321,-11.315 -11.315,-11.315 h -4.3785 v -8.9737 h 50.287 v -8.5836 h -19.335 v -8.9304 h 4.3351 c 6.2826,0 11.358,-5.0754 11.358,-11.358 v -16.04 c 0,-6.2826 -5.0754,-11.358 -11.358,-11.358 h -16.04 c -6.2826,0 -11.358,5.0754 -11.358,11.358 v 16.04 c 0,6.2826 5.0754,11.358 11.358,11.358 h 4.3351 v 8.9304 h -55.186 v -8.9304 h 5.0288 c 6.2826,0 11.358,-5.0754 11.358,-11.358 v -16.04 c 0,-6.2826 -5.0754,-11.358 -11.358,-11.358 h -16.04 z m 1.9942,6.7194 c 0.24998,-0.0252 0.52346,0 0.78033,0 h 10.491 c 4.1097,0 7.4131,3.3034 7.4131,7.4131 v 10.491 c 0,4.1097 -3.3034,7.4131 -7.4131,7.4131 h -10.491 c -4.1097,0 -7.4131,-3.3034 -7.4131,-7.4131 v -10.491 c 0,-3.8528 2.883,-7.0345 6.6327,-7.4131 z m 61.862,0 c 0.24998,-0.0252 0.52346,0 0.78032,0 h 10.491 c 4.1097,0 7.4131,3.3034 7.4131,7.4131 v 10.491 c 0,4.1097 -3.3034,7.4131 -7.4131,7.4131 h -10.491 c -4.1097,0 -7.4131,-3.3034 -7.4131,-7.4131 v -10.491 c 0,-3.8528 2.883,-7.0345 6.6328,-7.4131 z m -30.172,65.2 h 10.534 c 4.1097,0 7.4131,3.3034 7.4131,7.4131 v 10.534 c 0,4.1097 -3.3034,7.4131 -7.4131,7.4131 h -10.534 c -4.1097,0 -7.4131,-3.3034 -7.4131,-7.4131 v -10.534 c 0,-4.1097 3.3034,-7.4131 7.4131,-7.4131 z"
         inkscape:connector-curvature="0" />
    </g>
  </g>
  <g
     id="layer3"
     inkscape:label="border"
     inkscape:groupmode="layer"
     transform="translate(0,-220)">
    <rect
       id="rect17756-2"
       style="fill:none;stroke:#131312;stroke-width:1.36161077"
       ry="6.839232"
       height="42.779919"
       width="43.030083"
       y="220.75952"
       x="1.3252683" />
  </g>
  <g
     id="layer4"
     inkscape:label="Symbol"
     inkscape:groupmode="layer"
     transform="translate(0,-220)">
    <g
       id="g16145-0-1"
       style="fill:#ffffff;stroke:#ffffff"
       transform="matrix(0.26451186,0,0,0.26298512,117.77759,404.6941)">
      <path
         id="rect15862-1-3"
         style="fill:#ffffff;stroke:#ffffff"
         d="m -397.75,-670.05 c -6.2826,0 -11.358,5.0754 -11.358,11.358 v 16.04 c 0,6.2826 5.0754,11.358 11.358,11.358 h 3.6415 v 8.9304 h -18.641 v 8.5836 h 50.287 v 8.9737 h -4.3785 c -6.2826,0 -11.315,5.0321 -11.315,11.315 v 16.083 c 0,6.2826 5.0321,11.315 11.315,11.315 h 16.083 c 6.2826,0 11.315,-5.0321 11.315,-11.315 v -16.083 c 0,-6.2826 -5.0321,-11.315 -11.315,-11.315 h -4.3785 v -8.9737 h 50.287 v -8.5836 h -19.335 v -8.9304 h 4.3351 c 6.2826,0 11.358,-5.0754 11.358,-11.358 v -16.04 c 0,-6.2826 -5.0754,-11.358 -11.358,-11.358 h -16.04 c -6.2826,0 -11.358,5.0754 -11.358,11.358 v 16.04 c 0,6.2826 5.0754,11.358 11.358,11.358 h 4.3351 v 8.9304 h -55.186 v -8.9304 h 5.0288 c 6.2826,0 11.358,-5.0754 11.358,-11.358 v -16.04 c 0,-6.2826 -5.0754,-11.358 -11.358,-11.358 h -16.04 z m 1.9942,6.7194 c 0.24998,-0.0252 0.52346,0 0.78033,0 h 10.491 c 4.1097,0 7.4131,3.3034 7.4131,7.4131 v 10.491 c 0,4.1097 -3.3034,7.4131 -7.4131,7.4131 h -10.491 c -4.1097,0 -7.4131,-3.3034 -7.4131,-7.4131 v -10.491 c 0,-3.8528 2.883,-7.0345 6.6327,-7.4131 z m 61.862,0 c 0.24998,-0.0252 0.52346,0 0.78032,0 h 10.491 c 4.1097,0 7.4131,3.3034 7.4131,7.4131 v 10.491 c 0,4.1097 -3.3034,7.4131 -7.4131,7.4131 h -10.491 c -4.1097,0 -7.4131,-3.3034 -7.4131,-7.4131 v -10.491 c 0,-3.8528 2.883,-7.0345 6.6328,-7.4131 z m -30.172,65.2 h 10.534 c 4.1097,0 7.4131,3.3034 7.4131,7.4131 v 10.534 c 0,4.1097 -3.3034,7.4131 -7.4131,7.4131 h -10.534 c -4.1097,0 -7.4131,-3.3034 -7.4131,-7.4131 v -10.534 c 0,-4.1097 3.3034,-7.4131 7.4131,-7.4131 z"
         inkscape:connector-curvature="0" />
    </g>
    <path
       style="opacity:1;fill:#e97c25;fill-opacity:1;stroke:none;stroke-width:0.28574833;stroke-miterlimit:4;stroke-dasharray:none;stroke-opacity:1"
       d="m 40.904729,250.07888 a 8.6210739,8.6210739 0 0 0 -8.62117,8.62119 8.6210739,8.6210739 0 0 0 8.62117,8.62078 8.6210739,8.6210739 0 0 0 8.621179,-8.62078 8.6210739,8.6210739 0 0 0 -8.621179,-8.62119 z m 0,0.54745 a 8.0736426,8.0736426 0 0 1 8.073781,8.07374 8.0736426,8.0736426 0 0 1 -8.073781,8.07332 8.0736426,8.0736426 0 0 1 -8.073771,-8.07332 8.0736426,8.0736426 0 0 1 8.073771,-8.07374 z"
       id="circle4885"
       inkscape:connector-curvature="0" />
    <circle
       style="opacity:1;fill:#f0cd6b;fill-opacity:1;stroke:none;stroke-width:0.28574833;stroke-miterlimit:4;stroke-dasharray:none;stroke-opacity:1"
       id="path4871"
       cx="40.904816"
       cy="258.69995"
       r="7.7909422" />
    <g
       id="g4922"
       transform="matrix(0.04927315,-0.02324474,0.02324474,0.04927315,-134.83749,175.53715)"
       style="fill:#6bb9f0;fill-opacity:1">
      <path
         sodipodi:nodetypes="cccc"
         inkscape:connector-curvature="0"
         id="path4924"
         d="m 2260.9487,2542.5095 c -26.4294,0.018 -49.0929,18.8694 -53.9239,44.8535 39.3037,5.5876 74.2239,3.8691 107.8536,0 -4.8314,-25.9863 -27.4981,-44.8382 -53.9297,-44.8535 z"
         style="opacity:1;fill:#f0cd6b;fill-opacity:1;stroke:none;stroke-width:3;stroke-miterlimit:4;stroke-dasharray:none;stroke-opacity:1" />
      <rect
         ry="6.109827"
         y="2525.1899"
         x="2254.8418"
         height="14.116755"
         width="12.219654"
         id="rect4926"
         style="opacity:1;fill:#6bb9f0;fill-opacity:1;stroke:none;stroke-width:3;stroke-miterlimit:4;stroke-dasharray:none;stroke-opacity:1" />
    </g>
    <path
       style="opacity:1;fill:#f0cd6b;fill-opacity:1;stroke:none;stroke-width:0.28574833;stroke-miterlimit:4;stroke-dasharray:none;stroke-opacity:1"
       d="m 35.638978,265.89867 -0.692816,1.60024 c -0.173973,0.40193 -0.126929,0.84445 0.21514,1.04632 0.342041,0.20186 0.761415,0.0366 1.019693,-0.31745 l 1.032713,-1.41559 a 8.6210739,8.6210739 0 0 1 -1.57473,-0.91352 z"
       id="rect4934"
       inkscape:connector-curvature="0" />
    <path
       inkscape:connector-curvature="0"
       id="path4944"
       d="m 46.351968,265.89867 0.692816,1.60024 c 0.173973,0.40193 0.126929,0.84445 -0.21513,1.04632 -0.342051,0.20186 -0.761415,0.0366 -1.019693,-0.31745 l -1.032723,-1.41559 a 8.6210739,8.6210739 0 0 0 1.57473,-0.91352 z"
       style="opacity:1;fill:#f0cd6b;fill-opacity:1;stroke:none;stroke-width:0.28574833;stroke-miterlimit:4;stroke-dasharray:none;stroke-opacity:1" />
    <g
       style="fill:#f0cd6b;fill-opacity:1"
       transform="matrix(-0.04927315,-0.02324474,-0.02324474,0.04927315,216.92785,175.53715)"
       id="g4946">
      <path
         style="opacity:1;fill:#f0cd6b;fill-opacity:1;stroke:none;stroke-width:3;stroke-miterlimit:4;stroke-dasharray:none;stroke-opacity:1"
         d="m 2260.9487,2542.5095 c -26.4294,0.018 -49.0929,18.8694 -53.9239,44.8535 39.3037,5.5876 74.2239,3.8691 107.8536,0 -4.8314,-25.9863 -27.4981,-44.8382 -53.9297,-44.8535 z"
         id="path4948"
         inkscape:connector-curvature="0"
         sodipodi:nodetypes="cccc" />
      <rect
         style="opacity:1;fill:#f0cd6b;fill-opacity:1;stroke:none;stroke-width:3;stroke-miterlimit:4;stroke-dasharray:none;stroke-opacity:1"
         id="rect4950"
         width="12.219654"
         height="14.116755"
         x="2254.8418"
         y="2525.1899"
         ry="6.109827" />
    </g>
    <path
       style="fill:#22313f;fill-opacity:1;stroke:none;stroke-width:0.09524944"
       d="m 40.868458,251.69703 -0.603262,0.88378 h 0.335021 v 5.82692 0.56397 0.006 h 0.55739 v -0.006 h 4.252354 v 0.31393 l 0.887725,-0.60327 -0.887944,-0.60329 v 0.33527 h -4.252135 v -0.007 -5.82691 h 0.313923 z"
       id="path5011-3"
       inkscape:connector-curvature="0"
       inkscape:transform-center-x="-30.047941"
       inkscape:transform-center-y="-30.612244"
       sodipodi:nodetypes="cccccccccccccccccc" />
  </g>
  <metadata
     id="metadata23">
    <rdf:RDF>
      <cc:Work>
        <dc:format>image/svg+xml</dc:format>
        <dc:type
           rdf:resource="http://purl.org/dc/dcmitype/StillImage" />
        <cc:license
           rdf:resource="http://creativecommons.org/publicdomain/zero/1.0/" />
        <dc:publisher>
          <cc:Agent
             rdf:about="http://openclipart.org/">
            <dc:title>Openclipart</dc:title>
          </cc:Agent>
        </dc:publisher>
        <dc:title></dc:title>
        <dc:date>2010-07-19T07:43:30</dc:date>
        <dc:description>glossy-shadow - community button in darkgrey</dc:description>
        <dc:source>https://openclipart.org/detail/73717/community-button-by-laser_engravers</dc:source>
        <dc:creator>
          <cc:Agent>
            <dc:title>laser_engravers</dc:title>
          </cc:Agent>
        </dc:creator>
        <dc:subject>
          <rdf:Bag>
            <rdf:li>black</rdf:li>
            <rdf:li>button</rdf:li>
            <rdf:li>community</rdf:li>
            <rdf:li>effect</rdf:li>
            <rdf:li>glossy</rdf:li>
            <rdf:li>grey</rdf:li>
            <rdf:li>icon</rdf:li>
            <rdf:li>network</rdf:li>
            <rdf:li>shadow</rdf:li>
          </rdf:Bag>
        </dc:subject>
      </cc:Work>
      <cc:License
         rdf:about="http://creativecommons.org/publicdomain/zero/1.0/">
        <cc:permits
           rdf:resource="http://creativecommons.org/ns#Reproduction" />
        <cc:permits
           rdf:resource="http://creativecommons.org/ns#Distribution" />
        <cc:permits
           rdf:resource="http://creativecommons.org/ns#DerivativeWorks" />
      </cc:License>
    </rdf:RDF>
  </metadata>
</svg>
