<?xml version="1.0" encoding="UTF-8" standalone="no"?>
<svg
   xmlns:dc="http://purl.org/dc/elements/1.1/"
   xmlns:cc="http://creativecommons.org/ns#"
   xmlns:rdf="http://www.w3.org/1999/02/22-rdf-syntax-ns#"
   xmlns:svg="http://www.w3.org/2000/svg"
   xmlns="http://www.w3.org/2000/svg"
   xmlns:sodipodi="http://sodipodi.sourceforge.net/DTD/sodipodi-0.dtd"
   xmlns:inkscape="http://www.inkscape.org/namespaces/inkscape"
   enable-background="new 0 0 64 64"
   height="32"
   version="1.1"
   viewBox="0 0 32 32"
   width="32"
   xml:space="preserve"
   id="svg20"
   sodipodi:docname="asbru_favourite_off.svg"
   inkscape:version="0.92.3 (2405546, 2018-03-11)"><metadata
     id="metadata26"><rdf:RDF><cc:Work
         rdf:about=""><dc:format>image/svg+xml</dc:format><dc:type
           rdf:resource="http://purl.org/dc/dcmitype/StillImage" /><dc:title></dc:title></cc:Work></rdf:RDF></metadata><defs
     id="defs24" /><sodipodi:namedview
     pagecolor="#ffffff"
     bordercolor="#666666"
     borderopacity="1"
     objecttolerance="10"
     gridtolerance="10"
     guidetolerance="10"
     inkscape:pageopacity="0"
     inkscape:pageshadow="2"
     inkscape:window-width="1810"
     inkscape:window-height="905"
     id="namedview22"
     showgrid="false"
     inkscape:zoom="14.389266"
     inkscape:cx="5.4418896"
     inkscape:cy="8.3395498"
     inkscape:window-x="0"
     inkscape:window-y="30"
     inkscape:window-maximized="0"
     inkscape:current-layer="svg20" /><g
     id="g844"><circle
       r="14.735541"
       style="fill:#e9ddaf;stroke:#ffd42a;stroke-width:2.4000001;stroke-miterlimit:4;stroke-dasharray:none;stroke-opacity:1"
       id="circle2"
       cy="15.983025"
       cx="16.071079" /><g
       transform="matrix(0.5196023,0,0,0.5196023,-0.55619493,-0.64424733)"
       id="g14"
       style="fill:#ff9955;stroke-width:1.92454886"><path
         style="fill:#ff9955;stroke-width:1.92454886"
         inkscape:connector-curvature="0"
         id="path12"
         d="m 52.872,26.063 c -0.31,-0.951 -1.133,-1.645 -2.121,-1.79 L 39.424,22.628 34.357,12.365 C 33.913,11.466 33.001,10.898 32,10.898 c -1.001,0 -1.913,0.568 -2.357,1.467 L 24.579,22.628 13.25,24.273 c -0.991,0.145 -1.813,0.838 -2.121,1.79 -0.31,0.951 -0.053,1.995 0.665,2.694 l 8.197,7.99 -1.934,11.283 c -0.168,0.986 0.237,1.982 1.046,2.57 0.455,0.334 0.996,0.502 1.543,0.502 0.418,0 0.838,-0.1 1.222,-0.302 L 32,45.473 42.132,50.8 c 0.384,0.202 0.804,0.302 1.222,0.302 0.544,0 1.088,-0.168 1.545,-0.502 0.809,-0.589 1.214,-1.585 1.046,-2.57 l -1.935,-11.284 8.197,-7.99 c 0.715,-0.696 0.973,-1.742 0.665,-2.693 z" /></g></g><g
     id="Layer_2"
     transform="translate(0,-32)" /></svg>