<?xml version="1.0" encoding="UTF-8" standalone="no"?>
<svg
   xmlns:dc="http://purl.org/dc/elements/1.1/"
   xmlns:cc="http://creativecommons.org/ns#"
   xmlns:rdf="http://www.w3.org/1999/02/22-rdf-syntax-ns#"
   xmlns:svg="http://www.w3.org/2000/svg"
   xmlns="http://www.w3.org/2000/svg"
   xmlns:sodipodi="http://sodipodi.sourceforge.net/DTD/sodipodi-0.dtd"
   xmlns:inkscape="http://www.inkscape.org/namespaces/inkscape"
   enable-background="new 0 0 200 200"
   height="16"
   id="Layer_1"
   version="1.1"
   viewBox="0 0 16 16"
   width="16"
   xml:space="preserve"
   sodipodi:docname="asbru_group.svg"
   inkscape:version="0.92.3 (2405546, 2018-03-11)"><metadata
     id="metadata9"><rdf:RDF><cc:Work
         rdf:about=""><dc:format>image/svg+xml</dc:format><dc:type
           rdf:resource="http://purl.org/dc/dcmitype/StillImage" /><dc:title></dc:title></cc:Work></rdf:RDF></metadata><defs
     id="defs7" /><sodipodi:namedview
     pagecolor="#ffffff"
     bordercolor="#666666"
     borderopacity="1"
     objecttolerance="10"
     gridtolerance="10"
     guidetolerance="10"
     inkscape:pageopacity="0"
     inkscape:pageshadow="2"
     inkscape:window-width="1920"
     inkscape:window-height="1021"
     id="namedview5"
     showgrid="false"
     inkscape:zoom="22.366364"
     inkscape:cx="-6.7928705"
     inkscape:cy="8.4745763"
     inkscape:window-x="0"
     inkscape:window-y="30"
     inkscape:window-maximized="1"
     inkscape:current-layer="Layer_1" /><path
     d="M 9.0232349,0.06511927 C 10.179309,0.21231854 11.258344,0.60703657 12.205299,1.1931936 12.0301,1.327753 11.854581,1.4636723 11.681702,1.6012716 11.513382,1.7447109 11.342823,1.8867902 11.175704,2.0329494 l -0.471838,0.4379178 c -0.109599,-0.07256 -0.241678,-0.1150394 -0.382958,-0.1150394 -0.0604,0 -0.118319,0.00824 -0.173199,0.02224 -0.0224,-0.03872 -0.04384,-0.07776 -0.06552,-0.1174394 C 9.9633902,2.0199895 9.8358708,1.7810307 9.7122714,1.5410319 9.599472,1.2959131 9.4781126,1.0542343 9.3614732,0.80879556 L 9.194754,0.43559742 C 9.1392343,0.31191804 9.0804346,0.18871866 9.0232349,0.06511927 Z M 8.6601967,0.15511882 c -0.03864,0.0797596 -0.094,0.19791902 -0.1683992,0.34543828 -0.03664,0.0739196 -0.07776,0.15575922 -0.1227193,0.24447878 -0.04536,0.0883196 -0.1,0.18175909 -0.1573593,0.28239862 C 8.0941195,1.2263135 7.9730001,1.4605523 7.8129209,1.6959911 7.6577217,1.9346299 7.4961225,2.1989486 7.2987635,2.4591073 7.202044,2.5905466 7.1048445,2.727826 7.001405,2.8647853 6.8946055,2.9999846 6.7858861,3.1372639 6.6724466,3.2755832 6.6159669,3.3440629 6.5587672,3.4139025 6.5015675,3.4840622 6.4413278,3.5519018 6.3814081,3.6207015 6.3201284,3.6895012 6.197969,3.8261405 6.0762096,3.9674998 5.9494103,4.1058191 5.8172509,4.2393384 5.6843716,4.3738977 5.5509322,4.5080571 c -0.06744,0.06744 -0.1321593,0.1375993 -0.2023189,0.201679 l -0.07656,0.0712 c 0.03544,0.0832 0.0556,0.1752791 0.0556,0.2718386 0,0.04856 -0.00544,0.09656 -0.01472,0.1420793 0.04024,0.0192 0.07976,0.03768 0.1195194,0.05784 0.207439,0.1050395 0.415118,0.2255989 0.6282369,0.3413583 0.2162389,0.1135995 0.4238379,0.2440788 0.6360768,0.3748782 0.1054395,0.06536 0.211919,0.1321593 0.3185584,0.199279 0.07856,0.05 0.1559192,0.1040794 0.2331189,0.1581592 0.1168794,-0.08896 0.2620786,-0.1420793 0.4191979,-0.1420793 0.04448,0 0.08768,0.00448 0.1300793,0.01232 l 0.07552,-0.1304793 C 7.9473203,5.9418899 8.0145999,5.8134905 8.0949195,5.6930111 L 8.5793171,4.9730147 8.7009165,4.7939756 c 0.0408,-0.06024 0.08624,-0.1156794 0.1293593,-0.1739191 0.0872,-0.1150394 0.1761592,-0.2293589 0.2648787,-0.3430383 0.1784791,-0.2269589 0.3505583,-0.4583977 0.5477573,-0.6706366 0.04024,-0.04656 0.08168,-0.0928 0.1225594,-0.1393593 -0.08728,-0.1156795 -0.1392793,-0.2595187 -0.1392793,-0.416318 0,-0.2146389 0.097039,-0.4070379 0.2507187,-0.5343973 L 9.8175509,2.3896677 C 9.7101914,2.1376689 9.609552,1.8830302 9.5068325,1.6296715 9.4133929,1.3719127 9.3278734,1.111354 9.2396338,0.85359533 L 9.1285144,0.4602373 C 9.0922745,0.32911795 9.0589147,0.19631862 9.0234749,0.06519927 8.9231554,0.05151934 8.8211559,0.0408794 8.7193164,0.03231944 c -2.4e-4,-8e-5 -0.02064,0.04271979 -0.05912,0.12279938 z M 10.462988,9.6597113 c -0.08048,-0.08728 -0.16128,-0.1751991 -0.242719,-0.2639187 -0.04008,-0.04488 -0.0832,-0.087359 -0.127199,-0.1290393 C 10.04955,9.2249935 10.00555,9.1825137 9.9617102,9.1400339 9.7865111,8.9709947 9.608592,8.7993956 9.4295529,8.6265165 9.3421133,8.5375569 9.2481138,8.4570773 9.1538742,8.3752377 9.0594747,8.2933981 8.9661952,8.2115585 8.8717956,8.128759 8.7777956,8.046919 8.6825166,7.9644398 8.5886771,7.8818802 8.5403571,7.8408402 8.4952371,7.7990002 8.4455578,7.7590008 L 8.2941985,7.6415614 C 8.2146789,7.5796417 8.1341993,7.518682 8.0547597,7.4570023 c -0.1112794,0.07392 -0.2440788,0.1174394 -0.387198,0.1174394 -0.0296,0 -0.0592,-0.0024 -0.0888,-0.00616 C 7.4794827,7.7719606 7.3892427,7.9753196 7.2934031,8.1783586 7.2321231,8.304358 7.1790837,8.4354773 7.124764,8.5659567 l -0.1627992,0.391678 c -0.05496,0.1303994 -0.0996,0.2643187 -0.1507993,0.396398 L 6.6613267,9.7508308 6.5246874,10.153389 c -0.04416,0.133519 -0.09448,0.266319 -0.1314394,0.402958 l -0.1204794,0.407038 -0.06248,0.203039 -0.05392,0.205679 c -0.05512,0.209919 -0.1127994,0.419358 -0.1622392,0.629917 0.06504,0.03016 0.1235994,0.06984 0.1752792,0.117119 0.03168,-0.02128 0.062,-0.04208 0.09328,-0.06296 0.1675991,-0.104799 0.3391183,-0.211279 0.5130374,-0.320478 0.3529583,-0.209839 0.7213564,-0.420718 1.1088745,-0.610797 0.09688,-0.04856 0.193439,-0.0972 0.2907185,-0.146799 0.09792,-0.04552 0.196959,-0.09112 0.2966385,-0.13736 0.198239,-0.08968 0.3969581,-0.182399 0.602317,-0.261198 0.203839,-0.07944 0.404638,-0.165999 0.611597,-0.240319 0.2071989,-0.07328 0.4118385,-0.148319 0.6171165,-0.218399 0.03048,-0.0092 0.06024,-0.01784 0.09056,-0.02704 0,-0.0054 -8.8e-4,-0.01104 -8.8e-4,-0.01608 0,-0.1383191 0.04112,-0.2667185 0.110639,-0.3749579 -0.01328,-0.01432 -0.02752,-0.02824 -0.04032,-0.04304 z M 0.39607802,9.117474 C 0.51367743,9.2102735 0.62783686,9.3067531 0.74679627,9.3981926 0.98759506,9.5745117 1.2200739,9.7587508 1.4614327,9.9316299 l 0.3642382,0.2574391 c 0.1219994,0.08384 0.2401588,0.174239 0.3669581,0.251678 l 0.3714382,0.244799 c 0.1235994,0.08176 0.2461587,0.164319 0.3751981,0.237919 0.1266394,0.0764 0.2539987,0.151359 0.3799981,0.229359 l 0.1892791,0.115759 0.193119,0.10816 0.3877581,0.215679 c 0.06488,0.0352 0.1291993,0.07328 0.194639,0.106479 l 0.197919,0.10032 c 0.2377588,0.120479 0.4717576,0.247198 0.7141564,0.357758 0.1191194,-0.12664 0.2851186,-0.208479 0.4714377,-0.217759 0.0392,-0.218719 0.08728,-0.435758 0.1321593,-0.654237 0.0524,-0.284158 0.1357593,-0.561517 0.206719,-0.841836 0.03408,-0.140719 0.08008,-0.277278 0.1211994,-0.416238 L 6.2542887,9.6119515 C 6.3470883,9.3387529 6.4420478,9.0652343 6.5454873,8.7947556 L 6.7077265,8.3925176 C 6.7616462,8.2579583 6.8150059,8.123799 6.8777256,7.9916396 6.9734051,7.7817207 7.0660447,7.5661218 7.1666842,7.3606828 7.0468448,7.2354034 6.9727651,7.0662043 6.9727651,6.8793252 c 0,-0.07088 0.0108,-0.1396793 0.0308,-0.204399 C 6.9302853,6.6222065 6.8565257,6.5698068 6.7818861,6.520847 6.6774866,6.4544473 6.5749271,6.3880477 6.4722076,6.322288 6.2674887,6.1894887 6.0682097,6.0538893 5.8633307,5.9378099 5.6589317,5.8190105 5.4641327,5.6961311 5.2625337,5.5858917 c -0.04,-0.02192 -0.0784,-0.0428 -0.1181594,-0.06432 -0.1266394,0.1389593 -0.3087985,0.2263189 -0.5117575,0.2263189 -0.1276793,0 -0.2464787,-0.03456 -0.3495182,-0.09488 C 3.9883001,5.8847702 3.6949415,6.114129 3.399663,6.312368 3.1115844,6.523247 2.8166259,6.7033261 2.5393473,6.8769252 2.2550287,7.0402044 1.99263,7.2031636 1.7361513,7.327403 1.609352,7.3927626 1.4881526,7.4547623 1.3723931,7.514362 1.2573537,7.5739617 1.1419943,7.6201215 1.0379148,7.6687613 0.82703586,7.7653208 0.64407678,7.8478004 0.48791756,7.9050001 0.17895911,8.0261995 6.399968e-4,8.0898792 6.399968e-4,8.0898792 0.00303998,8.3432379 0.01775991,8.5931566 0.04303978,8.8396354 0.16191919,8.9309149 0.27879861,9.0250745 0.39607802,9.117474 Z M 10.781066,9.4543523 c 0.09272,-0.04552 0.196159,-0.07184 0.306879,-0.07184 0.260238,0 0.486317,0.1430393 0.605597,0.3552782 0.138799,-0.03424 0.276958,-0.06712 0.412157,-0.0996 0.19312,-0.03936 0.384639,-0.06944 0.569278,-0.1037595 0.184239,-0.0328 0.365278,-0.06296 0.538717,-0.092399 0.174799,-0.02776 0.346238,-0.03936 0.509357,-0.05848 0.16296,-0.01784 0.319759,-0.03424 0.467998,-0.0476 0.148959,-0.0144 0.289439,-0.02976 0.421678,-0.03152 0.113679,-0.00448 0.220159,-0.0076 0.320478,-0.00992 8e-4,-0.1414393 0.04344,-0.2718386 0.116,-0.3807181 -0.02328,-0.01648 -0.04568,-0.03256 -0.06816,-0.04896 L 14.764166,8.7060361 14.555527,8.5369169 14.141449,8.1931586 C 14.07345,8.1353189 14.00177,8.0805992 13.93609,8.0193195 L 13.739931,7.8347604 13.348413,7.4646823 C 13.214894,7.3442029 13.093695,7.2113235 12.970815,7.0802042 L 12.603617,6.6847662 12.511857,6.5858067 12.424738,6.4830872 12.251539,6.2759682 11.91034,5.8582903 C 11.851461,5.7894907 11.798901,5.716211 11.746501,5.6436514 L 11.586822,5.4258925 C 11.480743,5.2796532 11.372823,5.1358939 11.269064,4.9893347 11.167304,4.8407754 11.074265,4.6866962 10.976585,4.5350169 L 10.686827,4.0793392 c -0.06816,-0.1163994 -0.13216,-0.2362388 -0.196879,-0.3553582 -0.05432,0.014 -0.11056,0.02192 -0.16912,0.02192 -0.111279,0 -0.216319,-0.02704 -0.309838,-0.0736 C 9.97387,3.719501 9.93691,3.767421 9.8997105,3.8143803 9.7176314,4.0321394 9.5605122,4.2693383 9.398513,4.5010971 9.3175534,4.6174965 9.2362738,4.7335759 9.1537142,4.8485354 9.1127544,4.9067751 9.0694747,4.9628548 9.0318748,5.0224545 L 8.9190754,5.2025336 8.4676377,5.92149 c -0.09552,0.1643192 -0.1883991,0.3303183 -0.2802386,0.4974375 0.1090394,0.1229594 0.1752791,0.2831186 0.1752791,0.4600777 0,0.08216 -0.01456,0.1608792 -0.04096,0.2334388 0.0796,0.06304 0.1583192,0.1256794 0.2379988,0.1875991 l 0.1504792,0.1187994 c 0.0496,0.04112 0.0972,0.08592 0.1459993,0.1283994 0.097199,0.085599 0.193919,0.1721591 0.2904786,0.2577587 0.096719,0.08592 0.193039,0.1715191 0.2895985,0.2571187 0.09568,0.08592 0.194159,0.1684791 0.2803986,0.2611987 0.1776791,0.1815191 0.3538388,0.3621582 0.5283978,0.5399173 0.04312,0.04416 0.08624,0.088959 0.129519,0.1327993 0.04368,0.04384 0.08664,0.08832 0.125999,0.1351993 0.08032,0.09272 0.16072,0.1845591 0.240319,0.2765587 0.01392,0.01576 0.02624,0.03112 0.04016,0.04656 z m 4.353818,-0.6467167 c 0.12592,-0.1273594 0.300559,-0.206079 0.493278,-0.206079 0.124319,0 0.241199,0.03256 0.341678,0.0904 C 15.99008,8.4642773 16,8.2332384 16,8.0001196 16,5.124774 14.483048,2.6036666 12.205379,1.1932736 12.05154,1.3524728 11.896421,1.5099121 11.740421,1.6660713 11.589142,1.8266305 11.440023,1.9895897 11.287864,2.1471089 l -0.421678,0.4737576 c 0.09344,0.1181594 0.149599,0.2670387 0.149599,0.4299978 0,0.1899991 -0.07616,0.3615182 -0.199759,0.4875176 l 0.203999,0.3382383 0.290318,0.4423178 c 0.098,0.1468793 0.189839,0.2967985 0.292559,0.4402378 0.105039,0.1414393 0.205519,0.2865586 0.309118,0.4296779 l 0.15352,0.2153589 c 0.05104,0.07184 0.101199,0.1444793 0.157359,0.2115989 l 0.330158,0.4149579 0.162079,0.208479 0.0812,0.1043995 0.08624,0.1003195 0.346958,0.400878 c 0.116719,0.1321593 0.225599,0.2718386 0.349918,0.397838 l 0.363038,0.3867981 0.180799,0.194479 c 0.05936,0.06576 0.12496,0.1252794 0.187439,0.187999 l 0.379279,0.3727982 0.187839,0.189279 0.196799,0.1790391 c 0.02032,0.01792 0.04016,0.0364 0.06024,0.05456 z M 3.3486233,14.509367 c 0.6280768,0.449518 1.3233533,0.809996 2.0686296,1.064075 -0.00784,-0.286559 -0.01952,-0.573757 -0.01488,-0.860316 l 0.01008,-0.431038 0.00784,-0.215999 0.01504,-0.215679 0.03048,-0.431677 c 0.00288,-0.04312 0.00824,-0.08552 0.01288,-0.12808 -0.096399,-0.0332 -0.1836791,-0.08656 -0.2562387,-0.155359 -0.04552,0.02944 -0.0904,0.05952 -0.1335193,0.08968 -0.1321594,0.0924 -0.2587988,0.18152 -0.3783182,0.266319 -0.06096,0.04176 -0.1198394,0.08288 -0.1771191,0.12288 -0.05632,0.04176 -0.1111194,0.08184 -0.1634392,0.121279 -0.1061594,0.07872 -0.2057589,0.152319 -0.2967985,0.220079 -0.04656,0.0332 -0.09128,0.06576 -0.1335193,0.09656 -0.04096,0.03248 -0.08048,0.06336 -0.1175994,0.0928 -0.2808786,0.220799 -0.4531177,0.349838 -0.4719177,0.362878 0.01712,-0.01848 0.1631192,-0.174639 0.413198,-0.429998 0.1306393,-0.140079 0.3043185,-0.291998 0.4991175,-0.473517 0.190719,-0.186239 0.4279178,-0.371759 0.6788766,-0.583998 0.04144,-0.03464 0.08496,-0.06784 0.1273594,-0.101999 -0.03936,-0.08736 -0.06168,-0.183839 -0.06168,-0.285839 0,-0.02776 0.00208,-0.05544 0.00528,-0.08248 -0.2478387,-0.1168 -0.4873575,-0.250319 -0.7299163,-0.376958 l -0.200079,-0.1072 C 4.0168597,12.0285 3.9535003,11.98842 3.8886207,11.949781 l -0.3879181,-0.233839 -0.193759,-0.117439 -0.1875991,-0.126 C 2.992705,11.389703 2.8691057,11.303383 2.7447863,11.219144 2.6187869,11.135624 2.4983075,11.044584 2.3779881,10.954185 L 2.0169499,10.682346 C 1.8959105,10.593707 1.7831111,10.492347 1.6674317,10.396508 L 1.3213534,10.106909 C 1.206314,10.01035 1.0996745,9.9021901 0.98927505,9.8012306 0.8795156,9.6978711 0.76919615,9.5958716 0.6609567,9.4913921 0.45095775,9.2785132 0.24615877,9.0607543 0.04295979,8.8396354 0.28719856,11.175304 1.5354323,13.211854 3.3486233,14.509367 Z M 1.204714,3.7765407 C 0.4409578,5.0024546 0,6.4498874 0,8.0000396 c 0,0.03008 0,0.06024 7.199964e-4,0.08968 0,0 0.1598392036,-0.1030395 0.4433577836,-0.2721587 C 0.58703706,7.7357209 0.75375623,7.6238015 0.94839526,7.5039621 1.1436743,7.3844427 1.3584732,7.2400434 1.593352,7.0862842 c 0.05888,-0.03872 0.1183194,-0.07808 0.1794391,-0.1181594 0.06024,-0.04176 0.1201594,-0.08496 0.1827991,-0.1283994 C 2.0798296,6.7541258 2.207909,6.6654863 2.3410283,6.5740467 2.4700676,6.4789272 2.602947,6.3809277 2.7378263,6.2806882 2.8764656,6.1848487 3.0115049,6.0783692 3.1496643,5.9718897 3.2869436,5.8643703 3.4307028,5.7579708 3.5659822,5.6418914 3.7034215,5.529252 3.8432608,5.4155725 3.9838201,5.3005331 c -0.0296,-0.07736 -0.0464,-0.1605592 -0.0464,-0.2478388 0,-0.05032 0.00544,-0.099679 0.01624,-0.1468792 C 3.8231009,4.8400554 3.6966215,4.7760557 3.5690222,4.723656 3.2207039,4.5706167 2.9041455,4.4210175 2.6151069,4.311818 2.4715076,4.2539783 2.3362283,4.1998986 2.2119889,4.1495789 2.0883896,4.0964591 1.9709501,4.0564593 1.8660707,4.0184595 1.4704726,3.8777402 1.2358338,3.7884607 1.208074,3.7774207 c 0.02912,0.00616 0.2747186,0.0572 0.6833565,0.1530392 0.2192789,0.04416 0.4798376,0.1266394 0.7811161,0.213919 0.1495993,0.04552 0.3128785,0.087279 0.4771977,0.1489592 0.1653591,0.0596 0.3388783,0.1215194 0.5203173,0.1862391 0.1345594,0.04552 0.2691187,0.0996 0.406398,0.1574392 C 4.203099,4.4671773 4.404778,4.3573378 4.6327768,4.3573378 c 0.1170395,0 0.2284789,0.02944 0.3250384,0.08112 l 0.07168,-0.06472 C 5.0990145,4.311818 5.1622942,4.2446984 5.2294139,4.1806187 5.3615732,4.0498994 5.4937325,3.92014 5.6242919,3.7920606 5.7514912,3.6599013 5.8782906,3.529502 6.00349,3.3997426 6.06509,3.3347026 6.1277294,3.2707032 6.1888491,3.2067036 6.2482891,3.1402236 6.3071685,3.0745442 6.3650082,3.0098246 6.4798876,2.8783852 6.596607,2.7510258 6.7102064,2.6267065 6.8204459,2.5000671 6.9246854,2.3716677 7.0290849,2.2491084 c 0.05104,-0.06128 0.1019994,-0.1222394 0.1519992,-0.1814391 0.02568,-0.03048 0.05104,-0.0596 0.076,-0.08936 0.02376,-0.02984 0.0476,-0.05992 0.07088,-0.08936 C 7.4222829,1.7701507 7.5125224,1.6558313 7.599642,1.5452719 7.7774811,1.326873 7.9266004,1.118074 8.0645997,0.93527492 8.1335593,0.84351538 8.197559,0.75759581 8.2573187,0.67815621 8.3152384,0.59663662 8.3677182,0.52199699 8.4146779,0.45423733 8.5097975,0.31903801 8.5866771,0.21391853 8.6385968,0.14199889 8.6910765,0.07015925 8.7192364,0.03207944 8.7192364,0.03207944 8.4817976,0.01071955 8.2425188,7.96e-5 7.9998,7.96e-5 c -2.8685457,0 -5.3832531,1.5090325 -6.795086,3.7764611 z M 12.964495,14.272808 c -0.298638,0.0073 -0.598717,0.0093 -0.898955,0.0093 -0.15048,0.001 -0.299679,-0.01232 -0.449278,-0.0192 l -0.450398,-0.02464 c -0.150639,-0.0042 -0.299038,-0.02944 -0.448798,-0.04416 l -0.448557,-0.05168 c -0.14984,-0.01408 -0.2982389,-0.03936 -0.4464781,-0.0664 L 9.3761931,13.99897 9.1540342,13.95857 8.9331553,13.90929 C 8.7862761,13.87673 8.6396368,13.84289 8.4927575,13.807931 l -0.2208789,-0.0524 c -0.07256,-0.0184 -0.1444792,-0.04112 -0.2170389,-0.06096 L 7.6194019,13.569292 C 7.3274034,13.492652 7.0432448,13.382413 6.7565262,13.283453 6.5750871,13.224253 6.401408,13.155374 6.2291689,13.084974 c -0.1235994,0.144479 -0.3065585,0.237279 -0.5105575,0.241999 -0.0324,0.182079 -0.06096,0.363598 -0.09128,0.545677 l -0.03392,0.210559 -0.0272,0.212239 -0.05632,0.424878 c -0.03456,0.283119 -0.05856,0.568317 -0.09248,0.853116 C 6.2272489,15.85008 7.0963645,16 7.9998,16 c 1.8753506,0 3.600782,-0.645677 4.964695,-1.727192 z m 6.4e-4,0 c 0.199439,-0.158159 0.391998,-0.325838 0.575037,-0.501837 1.059755,-1.017115 1.838551,-2.322469 2.212229,-3.7897413 -0.03976,0.00688 -0.08184,0.01064 -0.124319,0.01064 -0.344398,0 -0.629357,-0.2509587 -0.683997,-0.5792771 -0.100479,0.01408 -0.205599,0.02776 -0.319038,0.04176 -0.131999,0.01408 -0.269599,0.04112 -0.414638,0.0688 -0.144479,0.0284 -0.297519,0.05648 -0.456878,0.08384 -0.158159,0.0312 -0.324238,0.05376 -0.494397,0.093519 -0.168719,0.04112 -0.344079,0.08352 -0.524798,0.1246394 -0.180079,0.0424 -0.365998,0.08176 -0.554157,0.1303993 -0.130079,0.03808 -0.263039,0.077439 -0.397598,0.1167997 v 0.0054 c 0,0.163599 -0.05688,0.313599 -0.151679,0.432318 0.266719,0.335118 0.483037,0.688797 0.693836,1.004155 0.05352,0.08048 0.10552,0.158799 0.15624,0.236159 0.0512,0.07744 0.09168,0.158239 0.136559,0.234239 0.08664,0.151919 0.168319,0.297118 0.246719,0.433038 0.07616,0.135919 0.151119,0.261838 0.211999,0.382398 0.05872,0.122159 0.112799,0.234158 0.162239,0.335118 0.09832,0.201679 0.171599,0.361518 0.223279,0.469678 0.04488,0.09488 0.07088,0.150639 0.07648,0.163679 -0.0078,-0.01168 -0.0404,-0.06408 -0.09672,-0.153759 -0.06312,-0.102 -0.158319,-0.249199 -0.274959,-0.440238 -0.05848,-0.09512 -0.122559,-0.199919 -0.193039,-0.314319 -0.07328,-0.112639 -0.159039,-0.230719 -0.245439,-0.359758 -0.08752,-0.127439 -0.179919,-0.264319 -0.278238,-0.407758 -0.05032,-0.07128 -0.09808,-0.146239 -0.152959,-0.218799 -0.05464,-0.07256 -0.11112,-0.146799 -0.16816,-0.222159 -0.114399,-0.151679 -0.233118,-0.309118 -0.357038,-0.471997 -0.06096,-0.08184 -0.122959,-0.164719 -0.194719,-0.244879 -0.0624,-0.07592 -0.126639,-0.152959 -0.191359,-0.229999 -0.0904,0.04312 -0.191439,0.06776 -0.298078,0.06776 -0.240319,0 -0.451998,-0.1212 -0.576478,-0.306719 -0.03016,0.01024 -0.05944,0.02024 -0.08864,0.03048 -0.197039,0.07464 -0.396078,0.145839 -0.5955171,0.219759 -0.200079,0.07432 -0.3969581,0.161679 -0.5951171,0.241679 -0.200079,0.07808 -0.392638,0.173919 -0.588957,0.259519 -0.097279,0.04416 -0.194479,0.0876 -0.2918386,0.131439 -0.095039,0.04624 -0.190719,0.09352 -0.2848785,0.139679 -0.1899991,0.09352 -0.3791181,0.183839 -0.5600772,0.285119 -0.1812791,0.100319 -0.3659982,0.188319 -0.5405573,0.289678 -0.1746392,0.10032 -0.3467983,0.198479 -0.5145575,0.295759 -0.02976,0.01784 -0.05992,0.03624 -0.08936,0.05408 0.0224,0.06952 0.0356,0.143119 0.0356,0.219118 0,0.01712 -0.00168,0.03424 -0.00256,0.05104 0.1716792,0.07184 0.3431983,0.141999 0.5154374,0.200959 l 0.413678,0.150639 c 0.1367193,0.05408 0.2783186,0.09888 0.4184779,0.14344 l 0.4217579,0.136959 c 0.0704,0.02256 0.1407193,0.04616 0.2117589,0.06712 l 0.213759,0.0588 c 0.1429592,0.03768 0.2853585,0.07776 0.4281578,0.11816 l 0.2131189,0.06096 0.216159,0.05104 0.4332778,0.10032 c 0.1444797,0.0332 0.2882387,0.07016 0.4342377,0.09584 0.291839,0.05408 0.582158,0.11672 0.875756,0.163679 l 0.883436,0.13456 c 0.296638,0.0332 0.593277,0.06784 0.890555,0.107119 l 7.2e-4,-0.193039 v 0.192959 z"
     id="path2"
     style="fill:#ff6600;stroke-width:1"
     inkscape:connector-curvature="0" /></svg>