<?xml version="1.0" encoding="UTF-8" standalone="no"?>
<!-- Created with Inkscape (http://www.inkscape.org/) -->

<svg
   xmlns:dc="http://purl.org/dc/elements/1.1/"
   xmlns:cc="http://creativecommons.org/ns#"
   xmlns:rdf="http://www.w3.org/1999/02/22-rdf-syntax-ns#"
   xmlns:svg="http://www.w3.org/2000/svg"
   xmlns="http://www.w3.org/2000/svg"
   xmlns:sodipodi="http://sodipodi.sourceforge.net/DTD/sodipodi-0.dtd"
   xmlns:inkscape="http://www.inkscape.org/namespaces/inkscape"
   width="50"
   height="50"
   id="svg6078"
   version="1.1"
   inkscape:version="0.92.3 (2405546, 2018-03-11)"
   sodipodi:docname="asbru-scripts-manager.svg">
  <defs
     id="defs6080">
    <radialGradient
       gradientTransform="matrix(0.11132546,0,0,0.11147819,369.97746,527.37073)"
       id="radialGradient3763"
       gradientUnits="userSpaceOnUse"
       cy="40"
       cx="30"
       r="86.098999"
       inkscape:collect="always">
      <stop
         id="stop3759"
         style="stop-color:#a5d48f;stop-opacity:1"
         offset="0" />
      <stop
         id="stop3761"
         style="stop-color:#008e00;stop-opacity:1"
         offset="1" />
    </radialGradient>
  </defs>
  <sodipodi:namedview
     id="base"
     pagecolor="#ffffff"
     bordercolor="#666666"
     borderopacity="1.0"
     inkscape:pageopacity="0.0"
     inkscape:pageshadow="2"
     inkscape:zoom="11.2"
     inkscape:cx="5.005758"
     inkscape:cy="25.383797"
     inkscape:document-units="px"
     inkscape:current-layer="layer1"
     showgrid="false"
     fit-margin-top="0"
     fit-margin-left="0"
     fit-margin-right="0"
     fit-margin-bottom="0"
     inkscape:window-width="1938"
     inkscape:window-height="1204"
     inkscape:window-x="0"
     inkscape:window-y="28"
     inkscape:window-maximized="0" />
  <metadata
     id="metadata6083">
    <rdf:RDF>
      <cc:Work
         rdf:about="">
        <dc:format>image/svg+xml</dc:format>
        <dc:type
           rdf:resource="http://purl.org/dc/dcmitype/StillImage" />
        <dc:title />
      </cc:Work>
    </rdf:RDF>
  </metadata>
  <g
     inkscape:label="Layer 1"
     inkscape:groupmode="layer"
     id="layer1"
     transform="translate(-354.27996,-507.74598)">
    <g
       transform="matrix(0.07478351,0,0,0.07478351,354.21698,505.70464)"
       id="g5241"
       style="stroke-width:26.74386406;stroke-miterlimit:4;stroke-dasharray:none" />
    <path
       sodipodi:nodetypes="cssc"
       inkscape:connector-curvature="0"
       id="path5245"
       d="m 370.95527,516.91674 c 0,0 -9.55901,19.57945 -10.23642,27.72225 -0.67741,8.14279 1.12901,7.84398 1.88169,8.66572 0.75268,0.82176 25.02743,1.79865 25.02743,1.79865"
       style="fill:none;stroke:#000000;stroke-width:1;stroke-linecap:butt;stroke-linejoin:miter;stroke-miterlimit:4;stroke-dasharray:none;stroke-opacity:1" />
    <path
       sodipodi:nodetypes="cssc"
       inkscape:connector-curvature="0"
       id="path5247"
       d="m 389.39908,555.38394 c 0,0 5.587,0.37331 6.1457,-5.45035 0.44911,-4.68136 -4.05057,-4.55441 -5.44733,-4.55441 -1.39675,0 -5.37749,-0.11199 -5.37749,-0.11199"
       style="fill:none;stroke:#000000;stroke-width:1;stroke-linecap:butt;stroke-linejoin:miter;stroke-miterlimit:4;stroke-dasharray:none;stroke-opacity:1" />
    <path
       sodipodi:nodetypes="ccssc"
       inkscape:connector-curvature="0"
       id="path5249"
       d="m 390.19174,518.45647 -21.77349,-1.5426 c 0,0 -3.50292,-0.38503 -3.40827,-3.2346 0.0947,-2.84956 4.20851,-3.3299 4.52402,-3.36121 0.31549,-0.0313 22.15959,0.95839 22.15959,0.95839"
       style="fill:none;stroke:#000000;stroke-width:1;stroke-linecap:butt;stroke-linejoin:miter;stroke-miterlimit:4;stroke-dasharray:none;stroke-opacity:1" />
    <path
       sodipodi:nodetypes="csssscc"
       inkscape:connector-curvature="0"
       id="path5251"
       d="m 391.42638,545.41284 c 0,0 -1.72855,0.0595 -2.75758,0.584 -1.11675,0.56919 -2.19481,1.62382 -1.83501,3.54714 0.69136,3.6956 2.46913,3.14126 3.45679,2.95648 0.98765,-0.18478 1.77778,-1.42544 1.67901,-1.8214 -0.0988,-0.39596 -0.0988,-0.39596 -0.0988,-0.39596 l -4.93826,-0.29037"
       style="fill:none;stroke:#000000;stroke-width:1;stroke-linecap:butt;stroke-linejoin:miter;stroke-miterlimit:4;stroke-dasharray:none;stroke-opacity:1" />
    <g
       style="stroke-width:26.74386406;stroke-miterlimit:4;stroke-dasharray:none"
       id="g5255"
       transform="matrix(0.07478351,0,0,0.07478351,359.87985,468.76028)" />
    <path
       id="path5259"
       style="fill:none;stroke:#000000;stroke-width:1;stroke-linecap:butt;stroke-linejoin:miter;stroke-miterlimit:4;stroke-dasharray:none;stroke-opacity:1"
       d="m 391.80834,511.25288 c 1.39675,0 5.89644,-0.12695 5.44733,4.55441 -0.18883,1.96831 -0.95206,3.22871 -1.92137,4.09229 -1.88847,1.91458 -5.569,9.2221 -7.44085,14.23417 -1.06052,2.83969 -6.14606,16.38693 -3.62755,19.05304 2.51851,2.66611 6.07406,2.13816 6.07406,2.13816"
       inkscape:connector-curvature="0"
       sodipodi:nodetypes="cscasc" />
    <path
       style="fill:none;stroke:#000000;stroke-width:1;stroke-linecap:butt;stroke-linejoin:miter;stroke-miterlimit:4;stroke-dasharray:none;stroke-opacity:1"
       d="m 393.13727,511.28653 c 0,0 -1.72856,0.0595 -2.75759,0.58401 -1.11674,0.56919 -2.19481,1.62382 -1.835,3.54714 0.69136,3.6956 1.93841,3.0459 3.45679,2.95648 0.82765,-0.0487 1.41037,-1.04289 1.679,-1.82141 0.13174,-0.38175 -0.0988,-1.20662 -0.0988,-1.20662 l -4.93826,-0.29037"
       id="path5261"
       inkscape:connector-curvature="0"
       sodipodi:nodetypes="cssaacc" />
    <path
       inkscape:connector-curvature="0"
       id="path2987"
       style="fill:url(#radialGradient3763);stroke:#000000;stroke-width:0.10474527;stroke-linecap:round;stroke-miterlimit:4;stroke-dasharray:none;stroke-opacity:1"
       d="m 385.56305,534.0594 c 0,3.47556 -12.02315,10.42655 -15.02895,8.68861 -3.00579,-1.73795 -3.00579,-15.63927 0,-17.37722 3.0058,-1.73805 15.02895,5.21305 15.02895,8.68861 z" />
    <path
       style="opacity:1;fill:#fff6d5;fill-opacity:1;fill-rule:nonzero;stroke:#000000;stroke-width:0.00892857;stroke-linejoin:round;stroke-miterlimit:4;stroke-dasharray:none;stroke-opacity:1"
       d="M 24.264687,9.3603514 C 18.862901,8.9761942 14.207698,8.6169513 13.919791,8.5620338 13.261676,8.4365 12.539804,8.1200939 12.093807,7.7616809 11.604378,7.3683653 11.349561,6.8668993 11.295237,6.1901435 c -0.03939,-0.490748 -0.01283,-0.634734 0.195694,-1.0609496 0.405817,-0.8294591 1.366885,-1.4467828 2.863041,-1.8390199 0.813927,-0.2133814 0.205211,-0.2233087 8.616072,0.1405151 2.725446,0.1178931 6.54241,0.2805925 8.482143,0.3615543 1.939732,0.080962 3.576744,0.1615037 3.637804,0.1789821 0.06237,0.017853 -0.0847,0.2148471 -0.3356,0.4495388 -0.991586,0.927513 -1.29455,2.2507086 -0.897181,3.9184406 0.105278,0.4418475 0.288029,1.0143921 0.406113,1.2723214 l 0.214698,0.4689627 -0.195952,-0.01084 c -0.107775,-0.006 -4.615597,-0.3251454 -10.017382,-0.7093026 z"
       id="path840"
       inkscape:connector-curvature="0"
       transform="translate(354.27996,507.74598)" />
    <path
       style="opacity:1;fill:#fff6d5;fill-opacity:1;fill-rule:nonzero;stroke:#000000;stroke-width:0.00892857;stroke-linejoin:round;stroke-miterlimit:4;stroke-dasharray:none;stroke-opacity:1"
       d="M 35.771117,9.9608086 C 35.479071,9.7150678 35.165841,9.0833828 34.969185,8.3435693 c -0.06466,-0.2432521 -0.109,-0.4480389 -0.09853,-0.4550817 0.01047,-0.00704 0.802515,0.038553 1.760104,0.1013234 0.957589,0.062771 1.851562,0.1168878 1.986607,0.1202603 0.223638,0.00558 0.245536,0.036345 0.245536,0.3449028 0,0.2242498 -0.0981,0.5009825 -0.290179,0.8186162 -0.435013,0.7193459 -0.59244,0.8028657 -1.632795,0.8662477 -0.868054,0.05288 -0.898792,0.04818 -1.16881,-0.1790294 z"
       id="path842"
       inkscape:connector-curvature="0"
       transform="translate(354.27996,507.74598)" />
    <path
       style="opacity:1;fill:#fff6d5;fill-opacity:1;fill-rule:nonzero;stroke:#000000;stroke-width:0.00892857;stroke-linejoin:round;stroke-miterlimit:4;stroke-dasharray:none;stroke-opacity:1"
       d="m 28.059329,46.589174 c -0.76116,-0.03965 -2.589285,-0.135063 -4.0625,-0.212022 C 15.138537,45.914407 9.4196452,45.442383 8.7266671,45.116789 8.2166845,44.877174 7.5579683,44.216371 7.3521373,43.737903 6.9001662,42.687268 6.7433965,40.79858 6.8966271,38.250132 6.9527278,37.317096 7.0774043,36.091649 7.173686,35.526917 7.8619902,31.489727 10.361445,24.475915 14.160309,15.9215 c 0.951221,-2.141992 2.695093,-5.916845 2.76631,-5.9880624 0.02722,-0.027215 7.217319,0.4701584 15.82021,1.0943584 3.607099,0.26172 4.949506,0.253944 5.59463,-0.03241 C 39.169274,10.627944 39.952515,9.3641355 39.94442,8.4089096 39.94202,8.1251514 39.88688,7.7121821 39.821905,7.4912 L 39.703763,7.0894173 37.787796,6.9783154 C 36.734014,6.9172094 35.616056,6.8432002 35.303445,6.8138505 L 34.73506,6.7604875 34.78701,6.4403318 c 0.128754,-0.7934113 0.991928,-1.6580413 1.977674,-1.9810073 1.628971,-0.5337103 3.130856,-0.4338087 4.333894,0.28828 0.933382,0.5602355 1.336932,1.3882316 1.334198,2.7374825 -0.0034,1.6812229 -0.505125,2.931313 -1.704589,4.247187 -2.152523,2.36143 -5.492624,8.783268 -7.848178,15.089286 -1.917005,5.131982 -3.313058,9.898051 -3.896818,13.303572 -0.216078,1.260549 -0.223013,3.8305 -0.01217,4.51068 0.204285,0.659028 0.588433,1.218903 1.149467,1.675284 l 0.462881,0.376536 -0.570057,-0.01318 c -0.31353,-0.0072 -1.192823,-0.04562 -1.953984,-0.08528 z M 19.443258,35.080282 c 4.662545,-1.255549 10.751486,-5.4016 11.770917,-8.014993 0.297581,-0.762874 0.167858,-1.406391 -0.478234,-2.37238 -1.742648,-2.605475 -7.33216,-6.114722 -11.426612,-7.173937 -1.180927,-0.305501 -2.3857,-0.320823 -2.970392,-0.03778 -1.495042,0.723738 -2.39102,4.040548 -2.390483,8.849297 5.54e-4,4.963335 0.958953,8.294173 2.558686,8.892507 0.485404,0.181551 2.006504,0.107616 2.936118,-0.142714 z"
       id="path844"
       inkscape:connector-curvature="0"
       transform="translate(354.27996,507.74598)" />
    <path
       style="opacity:1;fill:#fff6d5;fill-opacity:1;fill-rule:nonzero;stroke:#000000;stroke-width:0.00892857;stroke-linejoin:round;stroke-miterlimit:4;stroke-dasharray:none;stroke-opacity:1"
       d="m 33.550401,46.857214 c -1.082674,-0.264695 -2.104955,-0.809655 -2.818834,-1.50267 -0.707632,-0.686951 -0.791093,-0.900765 -0.860697,-2.204988 -0.05542,-1.038431 0.05459,-2.145168 0.387901,-3.902366 0.221152,-1.165909 0.244881,-1.232238 0.423666,-1.184255 0.104166,0.02796 0.780305,0.05138 1.502532,0.05205 l 1.313139,0.0012 -0.430783,0.402947 c -0.428867,0.401155 -0.912231,1.193596 -1.028364,1.685932 -0.192932,0.817916 0.04078,2.39541 0.513117,3.463456 0.26613,0.601767 0.850392,1.263225 1.351452,1.530012 0.288672,0.153702 0.513474,0.192152 1.120085,0.191577 1.156622,-0.0011 1.691798,-0.198921 2.36601,-0.874579 0.723611,-0.725163 0.923369,-1.217084 0.777203,-1.913933 -0.05691,-0.271307 -0.124966,-0.514784 -0.151242,-0.54106 -0.02627,-0.02628 -1.142138,-0.110888 -2.479694,-0.188027 l -2.43192,-0.140254 -0.02669,-0.615174 c -0.06415,-1.47881 1.009796,-2.450746 3.084218,-2.79126 0.853995,-0.140182 0.95773,-0.139995 1.685689,0.003 1.919183,0.377087 2.790177,1.29009 2.874001,3.012615 0.07902,1.623763 -0.507636,3.289415 -1.504108,4.270536 -0.596061,0.586878 -1.525933,1.086515 -2.407758,1.293732 -0.824159,0.193666 -2.361915,0.17076 -3.258928,-0.04855 z"
       id="path846"
       inkscape:connector-curvature="0"
       transform="translate(354.27996,507.74598)" />
    <path
       style="opacity:1;fill:#fff6d5;fill-opacity:1;fill-rule:nonzero;stroke:#000000;stroke-width:0.00892857;stroke-linejoin:round;stroke-miterlimit:4;stroke-dasharray:none;stroke-opacity:1"
       d="m 33.595044,46.817004 c -1.279042,-0.273916 -2.96424,-1.366017 -3.418533,-2.215396 -0.18377,-0.34359 -0.197353,-0.484468 -0.194874,-2.021119 0.0026,-1.605139 0.149278,-2.827571 0.495527,-4.129465 l 0.08905,-0.334821 0.509952,4.62e-4 c 0.280473,2.54e-4 0.895594,0.026 1.366935,0.05722 l 0.856983,0.05676 -0.3929,0.410052 c -0.216095,0.22553 -0.52138,0.671198 -0.678412,0.990375 -0.265706,0.540066 -0.284467,0.639266 -0.270444,1.43005 0.01667,0.939983 0.238489,1.931385 0.605912,2.708054 0.28951,0.611973 1.019323,1.347349 1.531145,1.542816 0.545648,0.208385 1.776534,0.137822 2.418504,-0.138644 0.529372,-0.227976 1.387991,-1.068618 1.593264,-1.559906 0.216439,-0.51801 0.143261,-1.420415 -0.126581,-1.560956 -0.07945,-0.04138 -0.887758,-0.120932 -1.796241,-0.176783 -0.908482,-0.05585 -1.967966,-0.12562 -2.354409,-0.155044 l -0.702623,-0.0535 0.03937,-0.750092 c 0.03421,-0.651711 0.07396,-0.799308 0.303109,-1.125345 0.647476,-0.921247 1.853369,-1.428945 3.42884,-1.44359 1.998027,-0.01857 3.350114,0.800644 3.668337,2.222611 0.06368,0.28456 0.08839,0.841794 0.06197,1.397732 -0.117707,2.476963 -1.491576,4.277847 -3.702921,4.853829 -0.648067,0.1688 -2.532001,0.165803 -3.330955,-0.0053 z"
       id="path848"
       inkscape:connector-curvature="0"
       transform="translate(354.27996,507.74598)" />
  </g>
</svg>
