<?xml version="1.0" encoding="UTF-8" standalone="no"?>
<svg
   xmlns:dc="http://purl.org/dc/elements/1.1/"
   xmlns:cc="http://creativecommons.org/ns#"
   xmlns:rdf="http://www.w3.org/1999/02/22-rdf-syntax-ns#"
   xmlns:svg="http://www.w3.org/2000/svg"
   xmlns="http://www.w3.org/2000/svg"
   xmlns:sodipodi="http://sodipodi.sourceforge.net/DTD/sodipodi-0.dtd"
   xmlns:inkscape="http://www.inkscape.org/namespaces/inkscape"
   id="Layer_1_1_"
   version="1.1"
   viewBox="0 0 32 32"
   xml:space="preserve"
   sodipodi:docname="asbru_node_add_16x16.svg"
   inkscape:version="0.92.3 (2405546, 2018-03-11)"
   width="32"
   height="32"><metadata
     id="metadata9"><rdf:RDF><cc:Work
         rdf:about=""><dc:format>image/svg+xml</dc:format><dc:type
           rdf:resource="http://purl.org/dc/dcmitype/StillImage" /><dc:title></dc:title></cc:Work></rdf:RDF></metadata><defs
     id="defs7" /><sodipodi:namedview
     pagecolor="#ffffff"
     bordercolor="#666666"
     borderopacity="1"
     objecttolerance="10"
     gridtolerance="10"
     guidetolerance="10"
     inkscape:pageopacity="0"
     inkscape:pageshadow="2"
     inkscape:window-width="1920"
     inkscape:window-height="1021"
     id="namedview5"
     showgrid="false"
     inkscape:zoom="26.0625"
     inkscape:cx="16"
     inkscape:cy="16"
     inkscape:window-x="0"
     inkscape:window-y="30"
     inkscape:window-maximized="1"
     inkscape:current-layer="Layer_1_1_" /><path
     d="M 7.3188612,17.259575 H 23.863547 c 3.547916,0 6.434043,-2.725788 6.434043,-6.076596 0,-3.3508084 -2.886127,-6.0765963 -6.434043,-6.0765963 H 8.2380101 c 0,-1.9184671 -1.6452765,-3.4723392 -3.6765958,-3.4723392 -2.031319,0 -3.67659552,1.5538721 -3.67659552,3.4723392 0,1.9184691 1.64527652,3.4723412 3.67659552,3.4723412 1.3566638,0 2.529498,-0.7031494 3.1673873,-1.7361706 H 23.863547 c 2.533176,0 4.595744,1.9479822 4.595744,4.3404257 0,2.392443 -2.062568,4.340425 -4.595744,4.340425 H 7.3188612 c -3.5479149,0 -6.43404242,2.725788 -6.43404242,6.076591 0,3.35081 2.88612752,6.076594 6.43404242,6.076594 H 23.453606 c 0.636053,1.033025 1.808887,1.736172 3.167389,1.736172 2.031318,0 3.676595,-1.553872 3.676595,-3.472339 0,-1.918469 -1.645277,-3.472343 -3.676595,-3.472343 -2.031319,0 -3.676596,1.553874 -3.676596,3.472343 H 7.3188612 c -2.5331744,0 -4.5957446,-1.947986 -4.5957446,-4.340427 0,-2.392442 2.0625702,-4.34042 4.5957446,-4.34042 z"
     id="path2"
     style="fill:#ffcc00;stroke:#ffcc00;stroke-width:0.60000002;stroke-miterlimit:0;stroke-dasharray:none;stroke-opacity:1"
     inkscape:connector-curvature="0" /><circle
     style="opacity:0;fill:#ff0000;fill-opacity:1;stroke-width:1;stroke-miterlimit:4;stroke-dasharray:none"
     id="path829"
     cx="-9.3279467"
     cy="-9.8042545"
     r="0" /><circle
     style="opacity:1;fill:#ff0000;fill-opacity:1;stroke:#000000;stroke-width:0;stroke-linecap:butt;stroke-linejoin:miter;stroke-miterlimit:0;stroke-dasharray:none;stroke-opacity:1;paint-order:normal"
     id="path835"
     cx="5.7869463"
     cy="5.9914875"
     r="5.7191491" /><circle
     style="opacity:1;fill:#ffcc00;fill-opacity:1;stroke:#808080;stroke-width:0;stroke-linecap:butt;stroke-linejoin:miter;stroke-miterlimit:0;stroke-dasharray:none;stroke-opacity:1;paint-order:normal"
     id="path835-6"
     cx="26.348646"
     cy="26.280851"
     r="5.7191491" /><g
     id="g837"
     transform="matrix(1.9373429,0,0,1.9373429,6.0036167,6.197711)"
     style="fill:#225500;stroke:#225500;stroke-width:0.30970252;stroke-linecap:square;stroke-linejoin:miter;stroke-miterlimit:0;stroke-dasharray:none;stroke-opacity:1;paint-order:stroke fill markers"><rect
       y="6.88729"
       x="3.1270988"
       height="2.2254195"
       width="9.7458029"
       id="rect818"
       style="opacity:1;fill:#225500;fill-opacity:1;stroke:#225500;stroke-width:0.30970252;stroke-linecap:square;stroke-linejoin:miter;stroke-miterlimit:0;stroke-dasharray:none;stroke-opacity:1;paint-order:stroke fill markers" /><rect
       transform="rotate(90)"
       y="-9.11271"
       x="3.1270983"
       height="2.2254195"
       width="9.7458029"
       id="rect818-0"
       style="opacity:1;fill:#225500;fill-opacity:1;stroke:#225500;stroke-width:0.30970252;stroke-linecap:square;stroke-linejoin:miter;stroke-miterlimit:0;stroke-dasharray:none;stroke-opacity:1;paint-order:stroke fill markers" /></g></svg>