<?xml version="1.0" encoding="UTF-8" standalone="no"?>
<svg
   xmlns:dc="http://purl.org/dc/elements/1.1/"
   xmlns:cc="http://creativecommons.org/ns#"
   xmlns:rdf="http://www.w3.org/1999/02/22-rdf-syntax-ns#"
   xmlns:svg="http://www.w3.org/2000/svg"
   xmlns="http://www.w3.org/2000/svg"
   xmlns:sodipodi="http://sodipodi.sourceforge.net/DTD/sodipodi-0.dtd"
   xmlns:inkscape="http://www.inkscape.org/namespaces/inkscape"
   enable-background="new 0 0 24 24"
   height="24px"
   id="Layer_1"
   version="1.1"
   viewBox="0 0 24 24"
   width="24px"
   xml:space="preserve"
   sodipodi:docname="iconfinder__windows-17_2559765.svg"
   inkscape:version="0.92.3 (2405546, 2018-03-11)"><metadata
     id="metadata17"><rdf:RDF><cc:Work
         rdf:about=""><dc:format>image/svg+xml</dc:format><dc:type
           rdf:resource="http://purl.org/dc/dcmitype/StillImage" /></cc:Work></rdf:RDF></metadata><defs
     id="defs15" /><sodipodi:namedview
     pagecolor="#ffffff"
     bordercolor="#666666"
     borderopacity="1"
     objecttolerance="10"
     gridtolerance="10"
     guidetolerance="10"
     inkscape:pageopacity="0"
     inkscape:pageshadow="2"
     inkscape:window-width="1103"
     inkscape:window-height="792"
     id="namedview13"
     showgrid="false"
     inkscape:zoom="9.8333333"
     inkscape:cx="12"
     inkscape:cy="12"
     inkscape:window-x="0"
     inkscape:window-y="30"
     inkscape:window-maximized="0"
     inkscape:current-layer="Layer_1" /><path
     inkscape:connector-curvature="0"
     id="path2"
     d="m 6.5,11.5 c -1.2,0.1 -2.3,0.4 -3,0.6 -0.1,0.1 -0.3,0.1 -0.5,0.2 l -1.8,6 c 1.2,-0.4 2.2,-0.6 3.2,-0.6 1.7,0 2.9,0.6 3.9,1.2 0.5,-1.7 1.5,-5 1.9,-6.3 C 10,12.5 9.8,12.4 9.6,12.3 8.6,11.7 7.5,11.4 6.5,11.5 Z"
     style="fill:#0000ff" /><path
     inkscape:connector-curvature="0"
     id="path4"
     d="m 12.5,14.1 -1.8,6.1 c 0.9,0.5 2.5,1.2 3.7,1.2 1.1,0 2.4,-0.3 3.9,-0.9 L 20,14.7 c -1.1,0.3 -2.2,0.5 -3.3,0.5 -1.8,0 -3.3,-0.6 -4.2,-1.1 z"
     style="fill:#ffcc00" /><path
     inkscape:connector-curvature="0"
     id="path6"
     d="M 11,9.9 C 11.4,8.7 12,6.6 12.5,5 L 12.9,3.7 C 12.4,3.4 11.5,3 10.8,2.8 10.3,2.7 9.8,2.6 9.2,2.6 8.1,2.6 7,2.9 5.7,3.4 L 4,9.4 C 5.2,9 6.3,8.8 7.3,8.8 c 1.6,0 2.8,0.5 3.7,1.1 z"
     style="fill:#d40000" /><path
     inkscape:connector-curvature="0"
     id="path8"
     d="M 19.3,6.3 C 17.4,6.3 16,5.7 15.1,5.1 l -1.8,6.2 c 2.3,1.4 4.9,1.5 7.6,0.3 l 1.8,-5.9 c -1.2,0.5 -2.3,0.6 -3.4,0.6 z"
     style="fill:#008000" /></svg>