<?xml version="1.0" encoding="UTF-8" standalone="no"?>
<svg
   xmlns:dc="http://purl.org/dc/elements/1.1/"
   xmlns:cc="http://creativecommons.org/ns#"
   xmlns:rdf="http://www.w3.org/1999/02/22-rdf-syntax-ns#"
   xmlns:svg="http://www.w3.org/2000/svg"
   xmlns="http://www.w3.org/2000/svg"
   xmlns:sodipodi="http://sodipodi.sourceforge.net/DTD/sodipodi-0.dtd"
   xmlns:inkscape="http://www.inkscape.org/namespaces/inkscape"
   id="Layer_1_1_"
   style="enable-background:new 0 0 16 16;"
   version="1.1"
   viewBox="0 0 16 16"
   xml:space="preserve"
   sodipodi:docname="asbru_node_add_16x16.svg"
   inkscape:version="0.92.3 (2405546, 2018-03-11)"><metadata
     id="metadata9"><rdf:RDF><cc:Work
         rdf:about=""><dc:format>image/svg+xml</dc:format><dc:type
           rdf:resource="http://purl.org/dc/dcmitype/StillImage" /><dc:title></dc:title></cc:Work></rdf:RDF></metadata><defs
     id="defs7" /><sodipodi:namedview
     pagecolor="#ffffff"
     bordercolor="#666666"
     borderopacity="1"
     objecttolerance="10"
     gridtolerance="10"
     guidetolerance="10"
     inkscape:pageopacity="0"
     inkscape:pageshadow="2"
     inkscape:window-width="1920"
     inkscape:window-height="1021"
     id="namedview5"
     showgrid="false"
     inkscape:zoom="52.125"
     inkscape:cx="8"
     inkscape:cy="8"
     inkscape:window-x="0"
     inkscape:window-y="30"
     inkscape:window-maximized="1"
     inkscape:current-layer="Layer_1_1_" /><path
     d="m 3.6779661,8.6610168 h 8.2372909 c 1.766441,0 3.20339,-1.3571186 3.20339,-3.0254237 0,-1.668305 -1.436949,-3.0254237 -3.20339,-3.0254237 H 4.1355932 c 0,-0.9551695 -0.8191525,-1.72881362 -1.8305085,-1.72881362 -1.0113559,0 -1.83050842,0.77364412 -1.83050842,1.72881362 0,0.9551695 0.81915252,1.7288136 1.83050842,1.7288136 0.6754576,0 1.2593899,-0.3500848 1.5769831,-0.8644068 h 8.0331892 c 1.261221,0 2.288135,0.9698643 2.288135,2.1610169 0,1.1911526 -1.026914,2.1610169 -2.288135,2.1610169 H 3.6779661 c -1.7664407,0 -3.20338982,1.3571191 -3.20338982,3.025421 0,1.668306 1.43694912,3.025423 3.20338982,3.025423 h 8.0331889 c 0.316679,0.514324 0.900611,0.864408 1.576984,0.864408 1.011355,0 1.830508,-0.773644 1.830508,-1.728813 0,-0.95517 -0.819153,-1.728815 -1.830508,-1.728815 -1.011356,0 -1.830509,0.773645 -1.830509,1.728815 H 3.6779661 c -1.2612203,0 -2.2881356,-0.969866 -2.2881356,-2.161018 0,-1.191152 1.0269153,-2.1610142 2.2881356,-2.1610142 z"
     id="path2"
     style="fill:#ffcc00;stroke:#ffcc00;stroke-width:0.60000002;stroke-miterlimit:0;stroke-dasharray:none;stroke-opacity:1"
     inkscape:connector-curvature="0" /><ellipse
     style="opacity:0;fill:#ff0000;fill-opacity:1;stroke-width:1;stroke-miterlimit:4;stroke-dasharray:none"
     id="path829"
     cx="-4.6101694"
     cy="-4.8135595"
     r="1.2203389" /><circle
     style="opacity:1;fill:#ff0000;fill-opacity:1;stroke:#000000;stroke-width:0;stroke-linecap:butt;stroke-linejoin:miter;stroke-miterlimit:0;stroke-dasharray:none;stroke-opacity:1;paint-order:normal"
     id="path835"
     cx="2.9152541"
     cy="3.0508468"
     r="2.8474579" /><circle
     style="opacity:1;fill:#ffcc00;fill-opacity:1;stroke:#808080;stroke-width:0;stroke-linecap:butt;stroke-linejoin:miter;stroke-miterlimit:0;stroke-dasharray:none;stroke-opacity:1;paint-order:normal"
     id="path835-6"
     cx="13.152541"
     cy="13.152542"
     r="2.8474579" /><g
     id="g837"
     transform="matrix(0.96456694,0,0,0.96456694,3.0231304,3.1535213)"
     style="fill:#71c837;stroke:#71c837;stroke-width:0.62204081;stroke-linecap:square;stroke-linejoin:miter;stroke-miterlimit:0;stroke-dasharray:none;stroke-opacity:1;paint-order:stroke fill markers"><rect
       y="6.88729"
       x="3.1270988"
       height="2.2254195"
       width="9.7458029"
       id="rect818"
       style="opacity:1;fill:#71c837;fill-opacity:1;stroke:#71c837;stroke-width:0.62204081;stroke-linecap:square;stroke-linejoin:miter;stroke-miterlimit:0;stroke-dasharray:none;stroke-opacity:1;paint-order:stroke fill markers" /><rect
       transform="rotate(90)"
       y="-9.11271"
       x="3.1270983"
       height="2.2254195"
       width="9.7458029"
       id="rect818-0"
       style="opacity:1;fill:#71c837;fill-opacity:1;stroke:#71c837;stroke-width:0.62204081;stroke-linecap:square;stroke-linejoin:miter;stroke-miterlimit:0;stroke-dasharray:none;stroke-opacity:1;paint-order:stroke fill markers" /></g></svg>