<?xml version="1.0" encoding="UTF-8" standalone="no"?>
<svg
   xmlns:dc="http://purl.org/dc/elements/1.1/"
   xmlns:cc="http://creativecommons.org/ns#"
   xmlns:rdf="http://www.w3.org/1999/02/22-rdf-syntax-ns#"
   xmlns:svg="http://www.w3.org/2000/svg"
   xmlns="http://www.w3.org/2000/svg"
   xmlns:sodipodi="http://sodipodi.sourceforge.net/DTD/sodipodi-0.dtd"
   xmlns:inkscape="http://www.inkscape.org/namespaces/inkscape"
   id="Layer_1_1_"
   version="1.1"
   viewBox="0 0 32 32"
   xml:space="preserve"
   sodipodi:docname="asbru_cluster_manager.svg"
   inkscape:version="0.92.3 (2405546, 2018-03-11)"
   width="32"
   height="32"><metadata
     id="metadata9"><rdf:RDF><cc:Work
         rdf:about=""><dc:format>image/svg+xml</dc:format><dc:type
           rdf:resource="http://purl.org/dc/dcmitype/StillImage" /><dc:title></dc:title></cc:Work></rdf:RDF></metadata><defs
     id="defs7" /><sodipodi:namedview
     pagecolor="#ffffff"
     bordercolor="#666666"
     borderopacity="1"
     objecttolerance="10"
     gridtolerance="10"
     guidetolerance="10"
     inkscape:pageopacity="0"
     inkscape:pageshadow="2"
     inkscape:window-width="1920"
     inkscape:window-height="1021"
     id="namedview5"
     showgrid="false"
     inkscape:zoom="26.0625"
     inkscape:cx="16"
     inkscape:cy="16"
     inkscape:window-x="0"
     inkscape:window-y="30"
     inkscape:window-maximized="1"
     inkscape:current-layer="Layer_1_1_" /><path
     d="m 27.266949,8.4830534 c 2.071877,0 3.75,-1.6781241 3.75,-3.7500002 0,-2.0718741 -1.678123,-3.75000018 -3.75,-3.75000018 -2.071875,0 -3.75,1.67812608 -3.75,3.75000018 0,1.05375 0.436877,2.0025 1.136252,2.6831261 l -2.958752,5.1768747 c -0.60375,-0.22125 -1.246875,-0.36 -1.927501,-0.36 -1.5,0 -2.855626,0.59625 -3.864376,1.554373 L 8.2319484,8.0349273 c 0.1818761,-0.440624 0.285,-0.9206241 0.285,-1.4268741 0,-2.0718741 -1.6781249,-3.7500001 -3.7499995,-3.7500001 -2.0718749,0 -3.7499998,1.678126 -3.7499998,3.7500001 0,2.0718741 1.6781249,3.7500008 3.7499998,3.7500008 0.8849997,0 1.6874998,-0.318751 2.3287498,-0.8306267 l 7.6912493,5.7693767 c -0.399376,0.770623 -0.645,1.633123 -0.645,2.56125 0,0.586873 0.116248,1.14375 0.283124,1.67625 L 6.3794487,23.859926 C 5.8881986,23.62555 5.3463238,23.48305 4.7669489,23.48305 c -2.0718749,0 -3.7499998,1.678124 -3.7499998,3.75 0,2.071876 1.6781249,3.75 3.7499998,3.75 2.0718746,0 3.7499995,-1.678124 3.7499995,-3.75 0,-0.761248 -0.2306248,-1.468124 -0.6206248,-2.060624 l 7.3743744,-3.965624 c 1.025624,1.374374 2.649374,2.276248 4.49625,2.276248 0.933753,0 1.801877,-0.249374 2.578126,-0.6525 l 1.831875,2.281876 c -0.414375,0.603748 -0.66,1.333124 -0.66,2.120624 0,2.071876 1.678125,3.75 3.75,3.75 2.071877,0 3.75,-1.678124 3.75,-3.75 0,-2.071876 -1.678123,-3.75 -3.75,-3.75 -0.601875,0 -1.1625,0.15564 -1.666875,0.406876 l -1.751248,-2.1825 c 0.950623,-1.006876 1.543123,-2.354999 1.543123,-3.849372 0,-1.75125 -0.8175,-3.29625 -2.071875,-4.3275 l 2.968125,-5.1937507 c 0.313127,0.08624 0.6375,0.14624 0.97875,0.14624 z"
     id="path2"
     style="fill:#b3b3b3;stroke:#1a1a1a;stroke-width:2;stroke-miterlimit:4;stroke-dasharray:none;stroke-opacity:1"
     inkscape:connector-curvature="0" /></svg>