<?xml version="1.0" encoding="UTF-8" standalone="no"?>
<svg
   xmlns:dc="http://purl.org/dc/elements/1.1/"
   xmlns:cc="http://creativecommons.org/ns#"
   xmlns:rdf="http://www.w3.org/1999/02/22-rdf-syntax-ns#"
   xmlns:svg="http://www.w3.org/2000/svg"
   xmlns="http://www.w3.org/2000/svg"
   xmlns:sodipodi="http://sodipodi.sourceforge.net/DTD/sodipodi-0.dtd"
   xmlns:inkscape="http://www.inkscape.org/namespaces/inkscape"
   height="16"
   id="Capa_1"
   version="1.1"
   viewBox="0 0 16 16"
   width="16"
   xml:space="preserve"
   sodipodi:docname="asbru_group_open_16x16.svg"
   inkscape:version="0.92.3 (2405546, 2018-03-11)"><metadata
     id="metadata41"><rdf:RDF><cc:Work
         rdf:about=""><dc:format>image/svg+xml</dc:format><dc:type
           rdf:resource="http://purl.org/dc/dcmitype/StillImage" /><dc:title></dc:title></cc:Work></rdf:RDF></metadata><defs
     id="defs39" /><sodipodi:namedview
     pagecolor="#ffffff"
     bordercolor="#666666"
     borderopacity="1"
     objecttolerance="10"
     gridtolerance="10"
     guidetolerance="10"
     inkscape:pageopacity="0"
     inkscape:pageshadow="2"
     inkscape:window-width="1920"
     inkscape:window-height="1021"
     id="namedview37"
     showgrid="false"
     inkscape:zoom="52.125"
     inkscape:cx="8"
     inkscape:cy="8"
     inkscape:window-x="0"
     inkscape:window-y="30"
     inkscape:window-maximized="1"
     inkscape:current-layer="Capa_1"
     scale-x="1.3"
     showguides="false" /><path
     inkscape:connector-curvature="0"
     style="fill:#ed6912;fill-opacity:1;stroke-width:0.17888558"
     id="path2"
     d="M 15.256018,5.0000002 H 0.74399844 c -0.736641,0 -0.77344105,0.4482 -0.73344099,0.9958 L 0.67087834,15.004 c 0.04,0.5478 0.14384019,0.995999 0.87936116,0.995999 H 14.449617 c 0.750081,0 0.839041,-0.448199 0.879042,-0.995799 l 0.66032,-9.0081998 c 0.04016,-0.5478 0.0035,-0.996 -0.732961,-0.996 z m -0.53264,-2.1999999 c -0.0888,-0.4399999 -0.524001,-0.8 -0.967523,-0.8 H 8.3043287 c -0.4433607,0 -1.0632015,-0.3176 -1.3771219,-0.7056 L 6.4505662,0.70580042 C 6.1364857,0.3176004 5.5168049,3.9333338e-7 5.0734442,3.9333338e-7 H 2.4688007 C 2.0254402,3.9333338e-7 1.6225596,0.4472003 1.5737595,0.99400042 L 1.3399993,3.6000003 H 14.884658 Z" /><g
     id="g6"
     transform="translate(0,-64)" /><g
     id="g8"
     transform="translate(0,-64)" /><g
     id="g10"
     transform="translate(0,-64)" /><g
     id="g12"
     transform="translate(0,-64)" /><g
     id="g14"
     transform="translate(0,-64)" /><g
     id="g16"
     transform="translate(0,-64)" /><g
     id="g18"
     transform="translate(0,-64)" /><g
     id="g20"
     transform="translate(0,-64)" /><g
     id="g22"
     transform="translate(0,-64)" /><g
     id="g24"
     transform="translate(0,-64)" /><g
     id="g26"
     transform="translate(0,-64)" /><g
     id="g28"
     transform="translate(0,-64)" /><g
     id="g30"
     transform="translate(0,-64)" /><g
     id="g32"
     transform="translate(0,-64)" /><g
     id="g34"
     transform="translate(0,-64)" /></svg>