<?xml version="1.0" encoding="UTF-8" standalone="no"?>
<svg
   xmlns:dc="http://purl.org/dc/elements/1.1/"
   xmlns:cc="http://creativecommons.org/ns#"
   xmlns:rdf="http://www.w3.org/1999/02/22-rdf-syntax-ns#"
   xmlns:svg="http://www.w3.org/2000/svg"
   xmlns="http://www.w3.org/2000/svg"
   xmlns:sodipodi="http://sodipodi.sourceforge.net/DTD/sodipodi-0.dtd"
   xmlns:inkscape="http://www.inkscape.org/namespaces/inkscape"
   height="16"
   id="Capa_1"
   version="1.1"
   viewBox="0 0 16 16"
   width="16"
   xml:space="preserve"
   sodipodi:docname="asbru_group_open_16x16.svg"
   inkscape:version="0.92.3 (2405546, 2018-03-11)"><metadata
     id="metadata41"><rdf:RDF><cc:Work
         rdf:about=""><dc:format>image/svg+xml</dc:format><dc:type
           rdf:resource="http://purl.org/dc/dcmitype/StillImage" /><dc:title></dc:title></cc:Work></rdf:RDF></metadata><defs
     id="defs39" /><sodipodi:namedview
     pagecolor="#ffffff"
     bordercolor="#666666"
     borderopacity="1"
     objecttolerance="10"
     gridtolerance="10"
     guidetolerance="10"
     inkscape:pageopacity="0"
     inkscape:pageshadow="2"
     inkscape:window-width="1920"
     inkscape:window-height="1021"
     id="namedview37"
     showgrid="false"
     inkscape:zoom="2.95"
     inkscape:cx="-66.949153"
     inkscape:cy="12.881356"
     inkscape:window-x="0"
     inkscape:window-y="30"
     inkscape:window-maximized="1"
     inkscape:current-layer="Capa_1"
     scale-x="1.3"
     showguides="false" /><g
     id="g4"
     style="fill:#ffcc00"
     transform="matrix(0.16000022,0,0,0.2,-1.625673e-4,9.9999998e-8)"><path
       d="m 95.351,25 h -90.7 c -4.604,0 -4.834,2.241 -4.584,4.979 L 4.194,75.02 C 4.444,77.759 5.093,80 9.69,80 h 80.621 c 4.688,0 5.244,-2.241 5.494,-4.979 L 99.932,29.98 C 100.183,27.241 99.954,25 95.351,25 Z M 92.022,14 C 91.467,11.8 88.747,10 85.975,10 H 51.903 C 49.132,10 45.258,8.412 43.296,6.472 L 40.317,3.529 C 38.354,1.588 34.481,0 31.71,0 H 15.431 C 12.66,0 10.142,2.236 9.837,4.97 L 8.376,18 H 93.03 Z"
       id="path2"
       style="fill:#ffcc00"
       inkscape:connector-curvature="0" /></g><g
     id="g6"
     transform="translate(0,-64)" /><g
     id="g8"
     transform="translate(0,-64)" /><g
     id="g10"
     transform="translate(0,-64)" /><g
     id="g12"
     transform="translate(0,-64)" /><g
     id="g14"
     transform="translate(0,-64)" /><g
     id="g16"
     transform="translate(0,-64)" /><g
     id="g18"
     transform="translate(0,-64)" /><g
     id="g20"
     transform="translate(0,-64)" /><g
     id="g22"
     transform="translate(0,-64)" /><g
     id="g24"
     transform="translate(0,-64)" /><g
     id="g26"
     transform="translate(0,-64)" /><g
     id="g28"
     transform="translate(0,-64)" /><g
     id="g30"
     transform="translate(0,-64)" /><g
     id="g32"
     transform="translate(0,-64)" /><g
     id="g34"
     transform="translate(0,-64)" /></svg>