<?xml version="1.0" encoding="UTF-8" standalone="no"?>
<svg
   xmlns:dc="http://purl.org/dc/elements/1.1/"
   xmlns:cc="http://creativecommons.org/ns#"
   xmlns:rdf="http://www.w3.org/1999/02/22-rdf-syntax-ns#"
   xmlns:svg="http://www.w3.org/2000/svg"
   xmlns="http://www.w3.org/2000/svg"
   xmlns:sodipodi="http://sodipodi.sourceforge.net/DTD/sodipodi-0.dtd"
   xmlns:inkscape="http://www.inkscape.org/namespaces/inkscape"
   enable-background="new 0 0 24 24"
   height="24px"
   id="Layer_1"
   version="1.1"
   viewBox="0 0 24 24"
   width="24px"
   xml:space="preserve"
   sodipodi:docname="asbru_method_rdesktop.svg"
   inkscape:version="0.92.3 (2405546, 2018-03-11)"><metadata
     id="metadata17"><rdf:RDF><cc:Work
         rdf:about=""><dc:format>image/svg+xml</dc:format><dc:type
           rdf:resource="http://purl.org/dc/dcmitype/StillImage" /><dc:title></dc:title></cc:Work></rdf:RDF></metadata><defs
     id="defs15" /><sodipodi:namedview
     pagecolor="#ffffff"
     bordercolor="#666666"
     borderopacity="1"
     objecttolerance="10"
     gridtolerance="10"
     guidetolerance="10"
     inkscape:pageopacity="0"
     inkscape:pageshadow="2"
     inkscape:window-width="1920"
     inkscape:window-height="1021"
     id="namedview13"
     showgrid="false"
     inkscape:zoom="9.8333333"
     inkscape:cx="-8.5932204"
     inkscape:cy="12"
     inkscape:window-x="0"
     inkscape:window-y="30"
     inkscape:window-maximized="1"
     inkscape:current-layer="Layer_1" /><path
     inkscape:connector-curvature="0"
     id="path2"
     d="M 6.5367687,11.808543 C 5.1178185,11.926788 3.8171144,12.281526 2.9893935,12.518018 2.8711478,12.636264 2.6346561,12.636264 2.3981644,12.754509 L 0.26973949,19.84926 C 1.6886895,19.376276 2.8711478,19.139785 4.0536061,19.139785 c 2.0101792,0 3.4291291,0.709475 4.6115875,1.418949 C 9.2564227,18.548556 10.438882,14.646443 10.911865,13.109247 10.675374,12.991001 10.438882,12.872756 10.202389,12.754509 9.0199309,12.045035 7.7192269,11.690297 6.5367687,11.808543 Z"
     style="fill:#0000ff;stroke-width:1" /><path
     inkscape:connector-curvature="0"
     id="path4"
     d="m 12.204756,13.794915 -2.114926,7.16725 c 1.057463,0.587479 2.937398,1.409951 4.347348,1.409951 1.292455,0 2.819902,-0.352487 4.58234,-1.057463 l 1.99743,-6.814762 c -1.292454,0.352487 -2.584909,0.587479 -3.877364,0.587479 -2.114926,0 -3.877365,-0.704975 -4.934828,-1.292455 z"
     style="fill:#ffcc00;stroke-width:0.99999994" /><path
     inkscape:connector-curvature="0"
     id="path6"
     d="M 11.019269,11.297448 C 11.50085,9.8527042 12.223221,7.3244018 12.825198,5.3980766 L 13.306779,3.8329374 C 12.704802,3.4717513 11.621245,2.99017 10.778477,2.7493793 10.176501,2.628984 9.5745247,2.5085886 8.8521525,2.5085886 c -1.3243489,0 -2.6486976,0.361186 -4.2138369,0.9631627 L 2.591595,10.695472 C 4.036339,10.21389 5.3606875,9.9730991 6.5646409,9.9730991 c 1.9263254,0 3.3710682,0.6019779 4.4546281,1.3243489 z"
     style="fill:#d40000;stroke-width:1" /><path
     inkscape:connector-curvature="0"
     id="path8"
     d="m 19.819889,5.6515686 c -2.290056,0 -3.977465,-0.7231753 -5.062228,-1.4463508 l -2.169526,7.4728142 c 2.772173,1.687409 5.905931,1.807938 9.160222,0.361587 l 2.169525,-7.1112257 c -1.44635,0.6026461 -2.772173,0.7231753 -4.097993,0.7231753 z"
     style="fill:#008000;stroke-width:0.99999988" /></svg>