<?xml version="1.0" encoding="UTF-8" standalone="no"?>
<svg
   xmlns:dc="http://purl.org/dc/elements/1.1/"
   xmlns:cc="http://creativecommons.org/ns#"
   xmlns:rdf="http://www.w3.org/1999/02/22-rdf-syntax-ns#"
   xmlns:svg="http://www.w3.org/2000/svg"
   xmlns="http://www.w3.org/2000/svg"
   xmlns:sodipodi="http://sodipodi.sourceforge.net/DTD/sodipodi-0.dtd"
   xmlns:inkscape="http://www.inkscape.org/namespaces/inkscape"
   height="32px"
   version="1.1"
   viewBox="0 0 32 32"
   width="32px"
   id="svg11"
   sodipodi:docname="asbru_method_ssh.svg"
   inkscape:version="0.92.3 (2405546, 2018-03-11)">
  <metadata
     id="metadata15">
    <rdf:RDF>
      <cc:Work
         rdf:about="">
        <dc:format>image/svg+xml</dc:format>
        <dc:type
           rdf:resource="http://purl.org/dc/dcmitype/StillImage" />
        <dc:title></dc:title>
      </cc:Work>
    </rdf:RDF>
  </metadata>
  <sodipodi:namedview
     pagecolor="#ffffff"
     bordercolor="#666666"
     borderopacity="1"
     objecttolerance="10"
     gridtolerance="10"
     guidetolerance="10"
     inkscape:pageopacity="0"
     inkscape:pageshadow="2"
     inkscape:window-width="1920"
     inkscape:window-height="1021"
     id="namedview13"
     showgrid="false"
     inkscape:zoom="20.270834"
     inkscape:cx="16.091127"
     inkscape:cy="20.614595"
     inkscape:window-x="0"
     inkscape:window-y="30"
     inkscape:window-maximized="1"
     inkscape:current-layer="svg11" />
  <desc
     id="desc4" />
  <defs
     id="defs6" />
  <g
     id="Page-1"
     style="fill:#217821;fill-rule:evenodd;stroke:none;stroke-width:0.84375"
     transform="matrix(1.1851852,0,0,1.1851852,-3.5555558,-3.5555558)">
    <g
       id="icon-114-lock"
       style="fill:#217821;stroke-width:0.84375">
      <path
         d="m 16,21.914647 v 2.594348 C 16,24.780169 16.231934,25 16.5,25 16.776142,25 17,24.772119 17,24.508995 V 21.914647 C 17.582596,21.708729 18,21.153109 18,20.5 18,19.671573 17.328427,19 16.5,19 15.671573,19 15,19.671573 15,20.5 c 0,0.653109 0.417404,1.208729 1,1.414647 z M 9,14.000013 V 10.499235 C 9,6.3567048 12.357864,3 16.5,3 20.633707,3 24,6.3575219 24,10.499235 v 3.500778 c 1.659147,0.0047 3,1.350304 3,3.009465 v 9.981044 C 27,28.663369 25.65292,30 23.991212,30 H 9.008788 C 7.3455902,30 6,28.652611 6,26.990522 V 17.009478 C 6,15.339581 7.3423335,14.004715 9,14.000013 Z M 12,14 V 10.500854 C 12,8.0092478 14.014719,6 16.5,6 18.980224,6 21,8.0151008 21,10.500854 V 14 Z"
         id="lock"
         style="fill:#217821;stroke-width:0.84375"
         inkscape:connector-curvature="0" />
    </g>
  </g>
</svg>
