<?xml version="1.0" encoding="UTF-8" standalone="no"?>
<!-- Created with Inkscape (http://www.inkscape.org/) -->

<svg
   xmlns:dc="http://purl.org/dc/elements/1.1/"
   xmlns:cc="http://creativecommons.org/ns#"
   xmlns:rdf="http://www.w3.org/1999/02/22-rdf-syntax-ns#"
   xmlns:svg="http://www.w3.org/2000/svg"
   xmlns="http://www.w3.org/2000/svg"
   xmlns:sodipodi="http://sodipodi.sourceforge.net/DTD/sodipodi-0.dtd"
   xmlns:inkscape="http://www.inkscape.org/namespaces/inkscape"
   id="svg3839"
   version="1.1"
   inkscape:version="0.48.3.1 r9886"
   width="640"
   height="480"
   sodipodi:docname="pac_dumb_guy.jpg">
  <metadata
     id="metadata3845">
    <rdf:RDF>
      <cc:Work
         rdf:about="">
        <dc:format>image/svg+xml</dc:format>
        <dc:type
           rdf:resource="http://purl.org/dc/dcmitype/StillImage" />
        <dc:title></dc:title>
      </cc:Work>
    </rdf:RDF>
  </metadata>
  <defs
     id="defs3843" />
  <sodipodi:namedview
     pagecolor="#ffffff"
     bordercolor="#666666"
     borderopacity="1"
     objecttolerance="10"
     gridtolerance="10"
     guidetolerance="10"
     inkscape:pageopacity="0"
     inkscape:pageshadow="2"
     inkscape:window-width="1535"
     inkscape:window-height="876"
     id="namedview3841"
     showgrid="false"
     inkscape:zoom="1.5229167"
     inkscape:cx="319.38925"
     inkscape:cy="213.55427"
     inkscape:window-x="65"
     inkscape:window-y="24"
     inkscape:window-maximized="1"
     inkscape:current-layer="svg3839" />
  <path
     style="fill:#000000"
     d="m 241.05883,406.89671 c 0,-2.44444 -0.45238,-3.5 -1.5,-3.5 -0.825,0 -1.5,-0.47656 -1.5,-1.05902 0,-0.58246 0.38679,-0.81996 0.85953,-0.52779 1.59444,0.98542 5.85093,-1.80777 6.87032,-4.50842 0.55647,-1.47427 0.9574,-4.7563 0.89096,-7.29341 -0.0837,-3.19646 0.28114,-4.61267 1.18821,-4.61214 0.71996,4.3e-4 1.0309,-0.44922 0.69098,-0.99922 -0.33992,-0.55 -0.14148,-1 0.44098,-1 0.58246,0 1.05902,-0.675 1.05902,-1.5 0,-1.81631 1.63514,-1.99117 2.33772,-0.25 0.40351,1 0.52017,1 0.58333,0 0.0434,-0.6875 0.7335,-1.25 1.5335,-1.25 0.8,0 2.52288,-1.0125 3.82862,-2.25 1.30574,-1.2375 4.25119,-3.81483 6.54545,-5.72739 2.29426,-1.91257 4.17138,-4.24851 4.17138,-5.19099 0,-0.94247 0.40775,-1.96559 0.90612,-2.2736 0.49837,-0.30801 0.65248,-1.52993 0.34248,-2.71539 -0.43527,-1.66444 -0.24305,-1.96215 0.84388,-1.30704 1.19928,0.72282 1.20447,0.59801 0.0351,-0.84363 -0.75487,-0.93058 -1.00636,-1.69196 -0.5589,-1.69196 0.44747,0 -0.0104,-0.60249 -1.01742,-1.33886 -1.46877,-1.07399 -1.61151,-1.71694 -0.72154,-3.25 1.08379,-1.86692 1.11017,-1.8655 1.13987,0.0614 0.0285,1.84566 0.13233,1.82699 1.61542,-0.29041 1.03434,-1.47673 2.20917,-2.06481 3.38157,-1.69271 2.20079,0.69851 3.26847,-1.54625 1.51468,-3.18454 -0.69748,-0.65155 -1.43399,-1.09918 -1.63668,-0.99474 -0.20269,0.10444 0.11953,-0.26011 0.71604,-0.81011 0.59651,-0.55 1.60071,-1.9 2.23156,-3 1.00155,-1.74638 1.15086,-1.77808 1.17741,-0.25 0.0167,0.9625 0.48041,1.75 1.03041,1.75 0.55,0 1,0.5051 1,1.12244 0,0.80699 -0.39655,0.79334 -1.41097,-0.0485 -0.96456,-0.80051 -1.61601,-0.83925 -2.05902,-0.12245 -0.35642,0.57671 -0.15445,1.04856 0.44882,1.04856 0.60328,0 0.96734,1.2375 0.80902,2.75 -0.18639,1.7807 0.15274,2.66188 0.96215,2.5 0.6875,-0.1375 1.25,0.25625 1.25,0.875 0,1.76444 6.07124,0.1567 8.68662,-2.30032 1.25552,-1.1795 2.56829,-3.76007 2.91727,-5.73461 0.35274,-1.99585 2.02478,-5.05794 3.76531,-6.89561 1.72194,-1.81805 3.0183,-3.50555 2.8808,-3.75 -1.05762,-1.88028 0.2342,-5.77481 2.75,-8.29061 2.82076,-2.82076 3.92879,-5.3005 2.25,-5.03543 -2.0627,0.32569 -3.25,-0.26555 -3.25,-1.61842 0,-0.825 0.41968,-1.5 0.93261,-1.5 0.51294,0 1.22034,-0.90653 1.572,-2.01452 0.35166,-1.10799 0.96357,-1.81416 1.3598,-1.56928 0.39623,0.24488 0.78587,-0.42358 0.86586,-1.48548 0.0813,-1.07995 -0.48821,-1.9308 -1.29242,-1.9308 -0.79082,0 -1.43785,-0.92656 -1.43785,-2.05902 0,-1.13246 -0.45,-1.7809 -1,-1.44098 -0.55,0.33992 -1,-0.11128 -1,-1.00267 0,-1.29312 0.71113,-1.50768 3.51842,-1.06153 3.33147,0.52946 3.48579,0.42914 2.90422,-1.88799 -0.45728,-1.82196 0.0511,-3.11248 1.98996,-5.05132 1.43229,-1.43229 2.99025,-2.36555 3.46214,-2.07391 1.23944,0.76602 3.85266,-2.45476 4.67961,-5.7676 0.39059,-1.56476 0.99975,-2.37646 1.3537,-1.80376 0.85768,1.38775 7.09195,2.44998 7.09195,1.20836 0,-1.58074 9.35299,-2.9686 10.78136,-1.59982 0.15475,0.1483 0.46757,1.11801 0.69517,2.15493 0.22759,1.03692 0.86446,3.37359 1.41526,5.19261 0.55081,1.81901 0.75234,3.95651 0.44785,4.75 -0.30449,0.79348 -0.093,1.4427 0.47004,1.4427 0.56301,0 1.25063,-0.5625 1.52804,-1.25 0.31289,-0.77542 0.53436,-0.61342 0.58333,0.42668 0.0434,0.92217 -0.67642,1.82217 -1.59964,2 -1.52568,0.29387 -1.53551,0.4664 -0.10785,1.89404 0.86391,0.8639 1.79207,2.4389 2.06259,3.5 0.27052,1.0611 0.54405,-0.11822 0.60785,-2.62072 0.0638,-2.5025 0.6785,-5.15602 1.366,-5.8967 1.01387,-1.09231 0.97672,-1.19043 -0.19667,-0.51944 -1.14035,0.65211 0.32909,-1.98621 3.5548,-6.38249 0.14069,-0.19175 0.95763,2.01466 1.81541,4.90313 0.85779,2.88847 2.45168,6.76372 3.54199,8.61165 1.94102,3.28978 2.26393,8.53553 0.68288,11.09371 -0.42154,0.68208 -0.48274,1.24014 -0.136,1.24014 0.34675,0 -0.10924,0.73969 -1.01331,1.64376 -1.11694,1.11694 -1.43515,2.47489 -0.99288,4.23706 0.73051,2.91057 -3.29827,12.35865 -5.00622,11.74033 -0.55,-0.19911 -1.04542,0.88033 -1.10093,2.39876 -0.17734,4.85055 -1.10002,6.2105 -3.38423,4.98803 -1.88581,-1.00925 -2.01934,-0.77187 -2.08513,3.70688 -0.0528,3.59381 -0.28425,4.28724 -0.92971,2.78518 -0.70224,-1.63419 -0.86948,-1.35984 -0.9144,1.5 -0.041,2.61242 0.19085,3.11961 0.9144,2 0.58246,-0.90129 0.97549,-1.02463 0.98469,-0.30902 0.008,0.65504 -0.47794,1.49583 -1.08081,1.86842 -0.60286,0.3726 -0.87885,2.08665 -0.61331,3.80902 0.27124,1.75933 -0.38804,5.68014 -1.50453,8.9476 -1.09304,3.19881 -1.75379,6.04956 -1.46834,6.33501 0.28544,0.28545 0.0584,1.84014 -0.50446,3.45487 -0.71829,2.0605 -0.69653,3.3298 0.073,4.257 0.60303,0.72661 0.78731,1.63024 0.40949,2.00805 -0.37781,0.37782 -0.78992,1.23641 -0.91578,1.90799 -0.12587,0.67158 -0.53115,2.6188 -0.90061,4.32715 -0.50842,2.35085 -0.28364,3.25502 0.92446,3.71861 0.87792,0.33689 1.59622,0.27242 1.59622,-0.14328 0,-0.4157 0.9,-0.82361 2,-0.90647 2.74068,-0.20645 2.53547,2.34504 -0.25,3.10839 -1.87694,0.51437 -2.00129,0.77988 -0.75,1.60132 1.05717,0.69401 1.12059,0.98924 0.21482,1.00003 -0.95873,0.0114 -1.02314,0.50495 -0.25359,1.94287 1.31445,2.45607 0.29686,5.18842 -1.80257,4.84015 -2.05409,-0.34075 -2.20405,2.50733 -0.17966,3.412 0.83655,0.37385 -4.8915,0.71135 -12.729,0.75 l -14.25002,0.0703 -0.11831,-3.25 -0.11832,-3.25 -0.63941,3 -0.63941,3 -9.71422,0.28587 -9.71422,0.28588 -0.66236,-2.78588 c -1.24335,-5.22947 -5.46286,-8.15412 -6.78676,-4.70408 -0.93331,2.43216 -0.72826,3.44246 0.64301,3.16821 0.6875,-0.1375 1.11375,0.38376 0.94721,1.15836 -0.16653,0.7746 0.28347,1.78021 1,2.23469 0.80533,0.51079 -0.32006,0.83217 -2.94721,0.84164 -2.3375,0.008 -4.25,-0.43469 -4.25,-0.98469 0,-0.55 -0.47656,-1 -1.05902,-1 -0.58246,0 -0.7809,0.45 -0.44098,1 0.3946,0.63848 -2.64803,1 -8.41623,1 l -9.03427,0 1.01606,-2.67245 c 1.46899,-3.86371 0.50314,-5.32755 -3.51512,-5.32755 -2.91166,0 -3.61955,0.42716 -4.13923,2.49776 -0.3448,1.37377 -0.3675,3.17377 -0.0504,4 0.31701,0.82623 0.14054,1.50224 -0.39219,1.50224 -0.53274,0 -0.96862,-1.575 -0.96862,-3.5 0,-1.925 -0.45,-3.5 -1,-3.5 -0.55,0 -1,1.575 -1,3.5 0,3.06667 -0.30952,3.5 -2.5,3.5 -2.19048,0 -2.5,-0.43333 -2.5,-3.50001 z m 68.68311,-9.6875 c -0.31922,-0.79773 -0.55618,-0.56078 -0.60416,0.60417 -0.0434,1.05416 0.19293,1.64479 0.52522,1.3125 0.33229,-0.33229 0.36781,-1.1948 0.0789,-1.91667 z m 19.03014,-34.64835 c 3.72749,-3.78317 3.8887,-4.16415 1.762,-4.16415 -0.83861,0 -1.92909,1.06349 -2.42328,2.36331 -0.49419,1.29981 -1.76489,2.58986 -2.82378,2.86676 -1.05888,0.27691 -2.18301,1.48914 -2.49804,2.69385 -0.50143,1.91747 -0.36914,2.02752 1.06178,0.88323 0.89901,-0.71893 3.11361,-2.80828 4.92132,-4.643 z m 8.25131,-9.10528 c 0.0249,-1.0144 -0.3993,-0.86635 -1.43276,0.5 -0.8075,1.06762 -1.46656,2.84113 -1.46456,3.94113 0.003,1.76792 0.16947,1.7099 1.43276,-0.5 0.78602,-1.375 1.44508,-3.14851 1.46456,-3.94113 z m 3.53544,53.94113 c 0.85325,-1.65 2.19897,-3 2.9905,-3 1.61098,0 3.78834,-3.38783 2.80765,-4.36852 -0.34732,-0.34731 -0.10648,-0.63148 0.53518,-0.63148 0.64167,0 1.16667,-0.8449 1.16667,-1.87756 0,-1.03265 0.74813,-2.49515 1.66252,-3.25 0.91438,-0.75484 2.50354,-3.26934 3.53145,-5.58777 1.02792,-2.31843 2.85492,-4.90593 4.05999,-5.75 1.20508,-0.84407 1.61437,-1.53467 0.90953,-1.53467 -0.70484,0 -1.00341,-0.45 -0.66349,-1 0.33992,-0.55 2.27898,-0.99311 4.30902,-0.98469 2.69625,0.0112 3.29013,0.26876 2.20359,0.95574 -1.16897,0.73909 -1.0084,0.90434 0.75,0.77188 2.52617,-0.19029 2.77647,-0.80385 1.03739,-2.54293 -0.93333,-0.93333 -0.76667,-1.21754 0.75,-1.27895 1.0725,-0.0434 1.39152,-0.30458 0.70893,-0.58035 -0.94065,-0.38004 -0.88013,-0.86236 0.25,-1.99249 0.82009,-0.82009 1.49107,-2.34737 1.49107,-3.39396 0,-1.11551 1.27947,-2.56453 3.09216,-3.50191 2.86601,-1.48207 3.06053,-1.91601 2.65965,-5.93303 -0.33269,-3.33368 -0.12315,-4.2153 0.90784,-3.81967 0.85911,0.32967 1.34035,-0.24215 1.34035,-1.59265 0,-1.15885 0.45,-2.10699 1,-2.10699 0.55,0 1,-0.70156 1,-1.55902 0,-0.85746 0.45,-1.2809 1,-0.94098 0.55,0.33992 1.00231,0.029 1.00512,-0.69098 0.003,-0.71996 1.16226,-3.10902 2.57652,-5.30902 1.41427,-2.2 2.30167,-3.14885 1.97199,-2.10856 -0.48957,1.54482 -0.33925,1.67553 0.82024,0.71324 0.80736,-0.67005 1.18397,-2.07951 0.87319,-3.26792 -0.34917,-1.33523 0.0491,-2.42302 1.10324,-3.01292 0.95154,-0.53251 1.6497,-2.17179 1.6497,-3.87353 0,-1.62267 0.49195,-2.95031 1.09323,-2.95031 0.68293,0 0.9225,-1.47811 0.63832,-3.93831 -0.25021,-2.16608 0.026,-4.41925 0.61381,-5.00705 1.32366,-1.32366 1.82182,-10.33329 0.61266,-11.08058 -0.48581,-0.30025 -1.09203,-3.00474 -1.34717,-6.00998 -0.25513,-3.00525 -1.14016,-7.93908 -1.96673,-10.96408 -0.82657,-3.025 -1.19714,-5.77632 -0.82349,-6.11404 2.61996,-2.36801 16.10184,-3.18756 14.68347,-0.89259 -0.26514,0.42901 0.18797,1.3361 1.00691,2.01577 0.81894,0.67966 1.48899,1.85565 1.48899,2.6133 0,0.75766 0.97762,1.37756 2.17248,1.37756 1.31576,0 4.29011,2.16895 7.54234,5.5 2.95342,3.025 6.03992,5.5 6.8589,5.5 0.81898,0 1.74807,0.675 2.06465,1.5 0.31659,0.825 1.31496,1.52656 2.21862,1.55903 0.90365,0.0325 3.66801,1.14826 6.14301,2.47956 2.475,1.3313 5.7375,2.97839 7.25,3.66021 1.5125,0.68182 2.75,1.54223 2.75,1.91203 0,0.36979 1.11163,0.95135 2.47028,1.29235 1.35865,0.34101 3.49615,1.70723 4.75,3.03607 l 2.27972,2.41605 7.5,-2.48871 c 10.09445,-3.34963 20.26648,-3.1169 29.5,0.67495 3.60264,1.47947 11.7854,2.17959 24.75,2.11764 l 12.75,-0.0609 0,43.95088 0,43.95087 -94.02568,0 -94.02568,0 1.55136,-3 z m -126.25,-39.70573 c -1.2375,-0.23836 -2.25,-1.09856 -2.25,-1.91157 0,-0.81301 -1.04603,-2.46921 -2.32451,-3.68045 -3.91352,-3.70768 -4.04471,-5.53664 -0.42272,-5.89293 2.337,-0.22989 3.99223,0.4441 6.44585,2.62468 1.81576,1.6137 3.30138,3.71439 3.30138,4.66821 0,2.26496 -1.04106,4.93441 -1.85699,4.76161 -0.35365,-0.0749 -1.65551,-0.3312 -2.89301,-0.56955 z m 30.33578,-11.42576 c -1.85257,-1.78859 -1.85563,-1.91284 -0.095,-3.85831 1.01905,-1.12603 3.08433,-2.0102 4.69554,-2.0102 2.66548,0 2.85906,0.25658 2.64063,3.5 -0.12964,1.925 -0.70624,3.53443 -1.28133,3.57651 -0.57508,0.0421 -1.72061,0.20332 -2.54561,0.35831 -0.825,0.15498 -2.3614,-0.54985 -3.41423,-1.56631 z m 9.60879,0.51142 c 0.97521,-0.29075 1.46043,-1.1154 1.14302,-1.94258 -0.30336,-0.79054 -0.0932,-1.43735 0.46694,-1.43735 1.86369,0 0.53889,3.49673 -1.39901,3.69258 -1.49549,0.15115 -1.54088,0.0839 -0.21095,-0.31265 z m -57.19457,-12.87993 c 0,-0.825 0.45,-1.5 1,-1.5 0.55,0 1,-0.675 1,-1.5 0,-0.825 0.47045,-1.5 1.04545,-1.5 0.575,0 2.05835,-1.0125 3.29633,-2.25 1.99625,-1.99547 21.11722,-9.23619 24.4501,-9.25874 0.71053,-0.005 1.61504,-0.53163 2.01001,-1.17072 0.39498,-0.63908 1.88645,-1.4552 3.31437,-1.81358 3.21533,-0.807 5.93871,1.56682 5.17,4.50639 -0.94318,3.60671 -14.90544,10.44933 -28.78626,14.10756 -8.67843,2.28716 -12.5,2.40306 -12.5,0.37909 z m 84.47127,-0.78804 c -1.50787,-1.77643 -0.61229,-4.98005 1.19798,-4.28539 0.82188,0.31539 1.90752,0.57343 2.41254,0.57343 0.50501,0 0.91821,0.46583 0.91821,1.03518 0,0.69639 -0.66512,0.67923 -2.03221,-0.0524 -1.84778,-0.9889 -1.97407,-0.85597 -1.39159,1.46482 0.70424,2.80593 0.45026,3.09657 -1.10493,1.26438 z m 7.33838,-10.86476 c -0.36975,-0.90904 -0.11701,-2.41218 0.56165,-3.3403 1.1333,-1.54989 1.34319,-1.55585 2.57381,-0.073 0.73694,0.88795 1.0263,1.92806 0.64302,2.31134 -0.38328,0.38328 -1.08155,0.0745 -1.55171,-0.68628 -0.63977,-1.03517 -0.94284,-0.77631 -1.20466,1.02896 -0.27757,1.91392 -0.48867,2.07075 -1.02211,0.75931 z m -103.64431,-7.2042 c -0.49607,-0.62865 -1.67498,-2.80415 -2.61979,-4.83444 -0.94482,-2.03029 -2.73524,-4.35805 -3.97871,-5.17281 -2.05987,-1.34968 -2.71686,-1.25569 -7.39063,1.05734 -8.77813,4.34425 -11.05461,0.96862 -3.92621,-5.82188 6.30859,-6.00955 13.40486,-9.01363 22.05471,-9.33647 7.25142,-0.27064 10.69529,-1.08683 10.69529,-2.53474 0,-0.43231 0.6062,-1.01864 1.34712,-1.30296 1.09044,-0.41844 1.17444,0.43312 0.44084,4.46927 -0.8955,4.92694 -0.003,7.83369 2.40591,7.83369 0.52194,0 1.6247,0.67572 2.45058,1.50159 1.69501,1.69501 1.36664,5.13067 -0.45384,4.74841 -0.65484,-0.1375 -1.19061,0.14873 -1.19061,0.63606 0,1.26498 -6.82696,4.33892 -8.01107,3.6071 -0.54391,-0.33616 -0.98893,0.0904 -0.98893,0.94782 0,0.85746 -0.47174,1.55902 -1.04831,1.55902 -0.57656,0 -2.81143,0.85185 -4.96636,1.893 -2.87202,1.38761 -4.15885,1.58784 -4.81999,0.75 z m 191.85358,-80.27414 c -2.62521,-12.44939 -2.26183,-17.78863 1.73494,-25.49223 2.54719,-4.90959 2.69186,-5.93461 2.65139,-18.78479 -0.0586,-18.59151 -4.21608,-35.49467 -10.2812,-41.80003 -1.16823,-1.2145 -2.13819,-2.5645 -2.15547,-3 -0.11438,-2.8819 -12.88163,-7.42455 -18.46858,-6.57121 -4.90149,0.74865 -10.15851,4.27599 -13.67916,9.17841 -1.8173,2.53054 -3.19543,4.71349 -3.06251,4.85099 0.13292,0.1375 0.20467,0.3625 0.15944,0.5 -0.0452,0.1375 -0.27866,1.6 -0.51873,3.25 -0.55863,3.83934 -3.44549,10.5 -4.55091,10.5 -0.46647,0 -0.84813,0.69399 -0.84813,1.54221 0,1.68512 -0.46581,2.32133 -6.75,9.21911 -5.08884,5.58572 -5.53354,8.4703 -3.12011,20.23868 1.43429,6.99387 3.21704,13.24027 5.47931,19.19842 1.5471,4.07458 1.60265,5.03722 0.4184,7.25 -0.75106,1.40337 -1.81659,2.55158 -2.36784,2.55158 -0.55125,0 -1.81677,0.73711 -2.81226,1.63801 -1.4682,1.3287 -2.09438,1.40199 -3.31601,0.38813 -0.82831,-0.68744 -2.13885,-1.00705 -2.9123,-0.71025 -2.3714,0.90999 -5.2556,-3.43227 -5.52356,-8.31589 -0.1358,-2.475 -0.80525,-5.4 -1.48767,-6.5 -0.68242,-1.1 -1.8158,-4.7 -2.51862,-8 -0.70283,-3.3 -1.91045,-6.99667 -2.6836,-8.21482 -0.77316,-1.21815 -1.40574,-2.70541 -1.40574,-3.30503 0,-0.59962 -2.25,-4.50281 -5,-8.67374 -2.75,-4.17094 -5,-7.95119 -5,-8.40056 0,-0.44937 -1.125,-2.47481 -2.5,-4.50099 -1.375,-2.02617 -2.50505,-4.18366 -2.51122,-4.79441 -0.0164,-1.61969 -15.43581,-12.67431 -21.92705,-15.7201 -3.05895,-1.43531 -8.10099,-5.07179 -11.20454,-8.08107 -3.10354,-3.00928 -7.49104,-6.93525 -9.75,-8.72438 -2.25895,-1.78913 -4.10719,-3.89015 -4.10719,-4.66893 0,-0.77878 -0.34329,-1.41597 -0.76287,-1.41597 -0.41958,0 -1.20708,-0.86694 -1.75,-1.92653 -3.3415,-6.52143 -11.74039,-19.99269 -13.40274,-21.4971 -1.25726,-1.1378 -4.61939,-2.08582 -9.27809,-2.61613 -4.01846,-0.45743 -9.16228,-1.13409 -11.43071,-1.50369 -2.63151,-0.42876 -4.37221,-0.27104 -4.80901,0.43573 -0.37654,0.60924 -1.7605,1.10772 -3.07546,1.10772 -1.31497,0 -4.39118,1.35 -6.83601,3 -2.44484,1.65 -4.87769,3 -5.40633,3 -0.52865,0 -3.02389,1.575 -5.54499,3.5 -2.52109,1.925 -5.0608,3.5 -5.6438,3.5 -0.58299,0 -1.05999,0.45 -1.05999,1 0,0.55 -0.6436,1 -1.43023,1 -0.78663,0 -4.34691,1.35 -7.91174,3 -3.56484,1.65 -6.90987,3 -7.43341,3 -0.52354,0 -2.21597,1.2375 -3.76096,2.75 -1.54499,1.5125 -2.50346,2.22578 -2.12993,1.58507 0.37353,-0.64071 -2.02375,0.43935 -5.32729,2.40014 -3.30354,1.96079 -6.00644,3.9475 -6.00644,4.41493 0,0.46742 -0.50972,0.84986 -1.1327,0.84986 -0.62299,0 -1.86049,0.7875 -2.75,1.75 -2.50648,2.71214 -4.64009,2.57566 -10.47338,-0.66993 -2.96511,-1.64975 -5.67299,-2.79267 -6.01751,-2.53981 -0.34453,0.25286 -0.40873,0.16706 -0.14267,-0.19066 0.26605,-0.35772 -0.65677,-1.70739 -2.05072,-2.99925 -2.68591,-2.48923 -5.43302,-8.09045 -5.43302,-11.07768 0,-0.98537 -0.9,-2.35364 -2,-3.0406 -1.15076,-0.71866 -2,-2.33202 -2,-3.79956 0,-1.44572 -0.43317,-2.28283 -1,-1.93251 -0.55,0.33992 -1,0.18962 -1,-0.33399 0,-0.52362 0.67917,-1.21266 1.50928,-1.5312 0.8301,-0.31854 1.45181,-0.92918 1.38157,-1.35698 -0.329,-2.00406 0.20345,-3.33758 1.10915,-2.77783 0.55,0.33992 1,0.12735 1,-0.47237 0,-0.59972 -0.64356,-1.33736 -1.43012,-1.63919 -0.78657,-0.30183 -1.88816,-1.86271 -2.44798,-3.46861 -0.59229,-1.69904 -1.736451,-2.91983 -2.736551,-2.91983 -0.94527,0 -1.48435,-0.23433 -1.19794,-0.52074 0.2864,-0.28641 2.7239,-0.0527 5.416661,0.51925 3.68572,0.78292 6.0069,0.71578 9.3904,-0.27163 4.59783,-1.34179 5.87797,-3.22645 4.43906,-6.53529 -1.26228,-2.902688 -1.29086,-4.137778 -0.0905,-3.910578 0.63633,0.12045 1.01907,-0.41968 0.85054,-1.20028 -0.24695,-1.14378 -0.019,-1.18075 1.17419,-0.19047 1.00461,0.83375 2.7106,0.97763 5.30643,0.44752 2.10419,-0.42971 5.10406,-0.6758 6.66639,-0.54686 1.80417,0.14889 3.88863,-0.64745 5.71305,-2.1826 1.57986,-1.32936 3.3553,-2.57797 3.94543,-2.77468 0.59013,-0.19671 1.68978,-2.15184 2.44367,-4.34475 1.24968,-3.63507 1.64613,-3.9582 4.49041,-3.65985 2.30026,0.24128 3.62938,-0.28429 5.06001,-2.0009 1.06717,-1.28048 1.95527,-1.99859 1.97357,-1.59581 0.0183,0.40279 1.67151,-0.85861 3.6738,-2.8031 2.0023,-1.9445 4.8148,-3.77156 6.25,-4.06015 3.30637,-0.66484 10.68176,-5.73581 10.38721,-7.14175 -0.12225,-0.5835 1.53935,-1.35853 3.69243,-1.72229 2.15308,-0.36376 4.4457,-1.30121 5.09471,-2.08321 0.649,-0.78201 2.02491,-1.42183 3.05756,-1.42183 1.03266,0 1.87756,-0.47656 1.87756,-1.05902 0,-0.58246 0.41891,-0.80012 0.9309,-0.48369 0.512,0.31644 1.21356,0.11799 1.55902,-0.44098 0.34546,-0.55897 2.40156,-1.01631 4.5691,-1.01631 2.16754,0 3.94098,-0.45 3.94098,-1 0,-0.55 0.87883,-1 1.95295,-1 2.57929,0 7.04705,-2.07156 7.04705,-3.2675 0,-0.52056 0.69837,-0.67849 1.55194,-0.35094 0.88992,0.34149 1.29132,0.17385 0.94098,-0.39301 -0.33602,-0.5437 0.32171,-0.98855 1.46163,-0.98855 2.07084,0 2.77645,-0.2723 8.69974,-3.35721 1.73486,-0.90353 4.12695,-1.64279 5.31574,-1.64279 1.1888,0 3.14437,-0.53243 4.34571,-1.18319 1.20134,-0.65075 3.93367,-1.06187 6.07184,-0.91359 2.13817,0.14827 4.19507,-0.22794 4.57089,-0.83603 0.65557,-1.06073 20.82554,-2.65149 29.54153,-2.32988 13.37619,0.49357 18.24691,0.99395 20.2147,2.07668 1.21809,0.67023 4.34474,1.46911 6.94813,1.77528 2.60338,0.30618 5.88176,1.35895 7.28529,2.33948 1.40354,0.98054 3.57127,1.69739 4.8172,1.59301 1.24592,-0.10438 2.76352,0.41053 3.37244,1.14423 0.60892,0.73371 1.89134,1.33401 2.84983,1.33401 0.95848,0 2.81588,0.82595 4.12755,1.83544 1.31167,1.00949 3.84736,2.46934 5.63486,3.24411 1.7875,0.77477 3.25,1.74882 3.25,2.16456 0,0.41574 0.58529,0.75589 1.30064,0.75589 2.82276,0 6.37716,2.5237 8.67422,6.15887 1.32675,2.09963 4.12517,5.19403 6.2187,6.87644 2.54265,2.04333 3.80644,3.87333 3.80644,5.51181 0,1.34909 0.5625,2.45417 1.25,2.45576 0.6875,0.002 2.15,1.35028 3.25,2.99712 1.1,1.64684 2.5625,2.99554 3.25,2.99712 0.6875,0.002 1.19671,0.34038 1.13158,0.75288 -0.35618,2.25582 0.24729,4.28839 1.11417,3.75263 0.54766,-0.33847 1.49608,0.64747 2.1076,2.19098 0.61152,1.54352 1.51343,3.58778 2.00425,4.54282 0.49082,0.95504 0.89929,2.53004 0.90771,3.5 0.0131,1.504348 0.1578,1.543088 0.98469,0.26357 0.74558,-1.15371 0.97644,-0.80742 1,1.499998 0.0333,3.26018 1.20308,5.74409 2.6118,5.5458 0.48851,-0.0688 1.0388,0.9053 1.22288,2.16459 0.18407,1.25929 0.74657,2.71711 1.25,3.23961 0.50342,0.5225 0.91532,2.1725 0.91532,3.66667 0,1.49416 0.52101,2.89033 1.15779,3.10259 0.63679,0.21227 1.11644,1.8405 1.06589,3.6183 -0.0505,1.7778 0.82439,5.80413 1.94431,8.9474 1.11992,3.14327 2.22835,7.29004 2.46319,9.21504 0.23484,1.925 0.83244,4.85 1.328,6.5 1.39171,4.63379 2.52094,12.42196 3.55233,24.5 0.35224,4.125 1.56028,11.325 2.68451,16 3.07136,12.7719 3.24761,22.56556 0.62988,35 -1.21577,5.775 -2.6742,10.81351 -3.24096,11.19669 -0.56676,0.38318 -1.20626,5.44568 -1.42112,11.25 -0.5223,14.10964 -2.15841,14.08489 -5.1449,-0.0778 z M 120.61268,114.48384 c -0.36954,-0.59792 -2.02747,-1.08713 -3.6843,-1.08713 -2.51703,0 -2.79217,0.22024 -1.67312,1.33929 2.74346,2.74346 7.0826,2.53923 5.35742,-0.25216 z m 7.94615,-11.08713 c -0.33992,-0.55 -1.15398,-0.99311 -1.80902,-0.98469 -0.71561,0.009 -0.59227,0.40223 0.30902,0.98469 1.92112,1.24153 2.2673,1.24153 1.5,0 z m 15.46268,146.96763 c -1.8378,-1.59392 -2.20437,-2.89465 -2.09937,-7.44937 l 0.12721,-5.51826 -3.55427,0 c -2.5609,0 -3.35298,0.34936 -2.83402,1.25 0.39615,0.6875 -0.38475,0.246 -1.73532,-0.98111 -2.92212,-2.65498 -3.91984,-9.26889 -1.39824,-9.26889 0.84223,0 1.53133,-0.39754 1.53133,-0.88342 0,-1.56042 4.73606,-1.84948 8.59069,-0.52432 4.02999,1.38544 8.19361,5.51953 8.90933,8.84613 1.68574,7.83525 0.57923,12.782 -3.41743,15.27796 -1.54727,0.96629 -2.30028,0.82944 -4.11991,-0.74872 z m 213.3713,0.78237 c -0.43124,-0.6875 -0.64617,-2.08669 -0.47764,-3.10931 0.16853,-1.02262 -0.12905,-1.59018 -0.66127,-1.26125 -1.42996,0.88376 -2.18884,-3.13972 -0.8083,-4.28547 2.12894,-1.76686 3.55096,0.37188 3.45414,5.19511 -0.10084,5.02414 -0.27522,5.42461 -1.50693,3.46092 z m -161.2298,-1.81773 c -1.3177,-0.53664 -5.88978,-0.91221 -10.16019,-0.8346 -7.01856,0.12756 -8.10615,-0.11957 -11.32245,-2.57276 -2.97237,-2.26715 -3.74932,-3.68599 -4.71991,-8.61939 -0.63901,-3.24804 -1.55329,-5.90552 -2.03174,-5.90552 -0.47844,0 -0.86989,-0.69322 -0.86989,-1.54049 0,-1.84696 -4.04762,-7.54812 -4.95899,-6.98485 -0.35252,0.21786 -0.74534,-1.15415 -0.87295,-3.04891 -0.19508,-2.89675 0.44947,-4.09851 4.04997,-7.55111 3.96241,-3.79965 8.50648,-6.30386 24.28197,-13.38164 3.3,-1.48056 6.29132,-3.16151 6.64737,-3.73543 0.62312,-1.0044 5.33194,-2.08802 14.85263,-3.41798 2.475,-0.34574 4.73469,-0.98628 5.02153,-1.42344 0.6723,-1.02461 12.29259,-1.45808 13.81782,-0.51544 0.63836,0.39453 1.16065,0.2831 1.16065,-0.24761 0,-0.5717 0.98401,-0.50055 2.41464,0.1746 1.32805,0.62674 2.23264,1.43399 2.01021,1.7939 -0.22244,0.35991 1.59501,0.95421 4.03877,1.32067 3.69977,0.55482 4.95296,1.35947 7.48979,4.80902 3.3564,4.564 3.86035,7.82846 1.50967,9.77935 -0.84531,0.70155 -1.46849,1.99415 -1.38485,2.87245 0.44641,4.68753 -0.40102,6.42001 -5.31332,10.8625 -2.87929,2.60392 -7.26679,6.7136 -9.75,9.1326 -2.4832,2.41901 -6.54601,5.42675 -9.02847,6.68387 -5.85844,2.96673 -9.24301,6.6423 -9.37821,10.18455 l -0.10823,2.83591 -7.5,0.15273 c -4.125,0.084 -8.57812,-0.28634 -9.89582,-0.82298 z m 49.57893,-44.11977 c -0.31922,-0.79773 -0.55618,-0.56078 -0.60416,0.60417 -0.0434,1.05416 0.19293,1.64479 0.52522,1.3125 0.33229,-0.33229 0.36781,-1.1948 0.0789,-1.91667 z m 100.69464,18.49585 c 0.15123,-3.49859 0.80311,-6.88921 1.44861,-7.53471 0.6455,-0.6455 1.17364,-2.03178 1.17364,-3.08063 0,-1.26905 0.49295,-1.71783 1.47355,-1.34153 0.81277,0.31189 1.92021,-0.20067 2.46959,-1.14301 0.93298,-1.6003 0.99797,-1.59767 1.02645,0.0415 0.0167,0.9625 -0.41959,1.75 -0.96959,1.75 -0.55,0 -1,1.05785 -1,2.35078 0,1.29292 -0.49671,3.77563 -1.10379,5.51712 -0.87852,2.5201 -0.79972,3.63042 0.38608,5.44018 1.42536,2.17537 1.34547,2.31905 -1.84481,3.31759 l -3.33469,1.04374 0.27496,-6.36106 z m 10.7012,-3.89168 c 0.048,-1.16495 0.28494,-1.4019 0.60416,-0.60417 0.28887,0.72187 0.25335,1.58438 -0.0789,1.91667 -0.33229,0.33229 -0.56864,-0.25834 -0.52522,-1.3125 z m 11.25438,-4.87268 c 0,-0.80081 0.38234,-1.21971 0.84965,-0.9309 0.4673,0.28881 0.59075,0.94401 0.27431,1.45601 -0.80862,1.30838 -1.12396,1.16106 -1.12396,-0.52511 z m -11.33333,-8.23591 c -5.40496,-0.90706 -8.56839,-2.40262 -9.51252,-4.49717 -0.54311,-1.20491 -2.82517,-3.15329 -5.07123,-4.32974 -2.61149,-1.36785 -3.99532,-2.74144 -3.83848,-3.81008 0.13489,-0.9191 -0.25492,-1.67109 -0.86625,-1.67109 -0.7662,0 -0.73871,-0.37281 0.0885,-1.2 0.66,-0.66 1.2,-2.39857 1.2,-3.86349 l 0,-2.66348 5.25,0.92737 c 2.8875,0.51006 7.05,1.75062 9.25,2.75681 2.2,1.00618 5.32334,2.13255 6.94075,2.50304 6.25765,1.43337 8.5961,8.6806 4.48667,13.90489 -2.03183,2.58306 -2.87774,2.79038 -7.92742,1.94294 z m 15,-0.24906 c 0,-0.51754 0.45,-1.2191 1,-1.55902 0.55,-0.33992 1,0.0835 1,0.94098 0,0.85746 -0.45,1.55902 -1,1.55902 -0.55,0 -1,-0.42344 -1,-0.94098 z m -32.96482,-23.99328 c -1.89555,-3.54187 -0.90148,-12.06574 1.40714,-12.06574 2.14636,0 5.80768,4.81463 5.80768,7.63708 0,1.63196 -0.90514,3.47501 -2.23578,4.55249 -2.83615,2.29658 -3.69511,2.27521 -4.97904,-0.12383 z m 26.16482,-5.26574 c -0.66,-0.66 -1.2,-2.2901 -1.2,-3.62244 0,-2.03991 0.23687,-2.22586 1.5,-1.17756 0.825,0.68469 1.5,2.05229 1.5,3.03911 0,0.98682 0.5625,2.0212 1.25,2.29861 0.83064,0.33517 0.72999,0.53087 -0.3,0.58333 -0.8525,0.0434 -2.09,-0.46105 -2.75,-1.12105 z"
     id="path3853"
     inkscape:connector-curvature="0"
     sodipodi:nodetypes="sssssscsssscssssssscscscsssssscsscssssssssssssssscssssssssssscssssscsssssscssssssssssscsccsscccccsssssscsssscccccccssscccsssscssscssssssccsccssscssscscsccscsssssssssssccssssssssscsssscssssssssssssssscssssscssscccccccssssssssssssccscssscsssssccsssscssssscccscscsccsssssssssssssssssscssscssscssssssssssssssssssscssssssssscssssssssssssssssccssssssscsssssccsscsssssssssssssscsssssssssssssssssssssssssssssscscsssscsscsssscssssssssccssssscsssscssssssssssssssssssssscssssssssscsssssssscssccscccsssscsssssccccscccsssscsssssscssssccssssssssssssssscs" />
</svg>
