<?xml version="1.0" encoding="UTF-8" standalone="no"?>
<svg
   xmlns:dc="http://purl.org/dc/elements/1.1/"
   xmlns:cc="http://creativecommons.org/ns#"
   xmlns:rdf="http://www.w3.org/1999/02/22-rdf-syntax-ns#"
   xmlns:svg="http://www.w3.org/2000/svg"
   xmlns="http://www.w3.org/2000/svg"
   xmlns:sodipodi="http://sodipodi.sourceforge.net/DTD/sodipodi-0.dtd"
   xmlns:inkscape="http://www.inkscape.org/namespaces/inkscape"
   enable-background="new 0 0 200 200"
   height="32"
   id="Layer_1"
   version="1.1"
   viewBox="0 0 32 32"
   width="32"
   xml:space="preserve"
   sodipodi:docname="asbru_method_ftp.svg"
   inkscape:version="0.92.3 (2405546, 2018-03-11)"><metadata
     id="metadata9"><rdf:RDF><cc:Work
         rdf:about=""><dc:format>image/svg+xml</dc:format><dc:type
           rdf:resource="http://purl.org/dc/dcmitype/StillImage" /><dc:title></dc:title></cc:Work></rdf:RDF></metadata><defs
     id="defs7" /><sodipodi:namedview
     pagecolor="#ffffff"
     bordercolor="#666666"
     borderopacity="1"
     objecttolerance="10"
     gridtolerance="10"
     guidetolerance="10"
     inkscape:pageopacity="0"
     inkscape:pageshadow="2"
     inkscape:window-width="1920"
     inkscape:window-height="1021"
     id="namedview5"
     showgrid="false"
     inkscape:zoom="29.203762"
     inkscape:cx="16.056412"
     inkscape:cy="16.180629"
     inkscape:window-x="0"
     inkscape:window-y="30"
     inkscape:window-maximized="1"
     inkscape:current-layer="Layer_1" /><path
     d="M 31.55641,8.3513739 V 13.71682 c -0.20336,0.858595 -0.653945,1.647139 -1.319515,2.286746 -0.9362,0.898425 -2.18395,1.39359 -3.511525,1.39359 h -8.347061 v -1.633501 c 0,-0.690286 -0.564975,-1.255037 -1.255345,-1.255037 h -2.133265 c -0.69006,0 -1.25488,0.564906 -1.25488,1.255037 v 1.633501 H 5.3872988 c -1.327575,0 -2.5750151,-0.495165 -3.5115251,-1.39359 C 1.2095837,15.364889 0.75977365,14.575725 0.55641364,13.71744 V 8.3513739 c 0,-1.156624 0.94705006,-2.1035585 2.10397006,-2.1035585 H 29.45275 c 1.156765,0 2.10366,0.9469345 2.10366,2.1035585 z M 17.123119,20.285539 c 0.110515,0 0.20274,-0.09237 0.20274,-0.202716 v -1.63381 -1.051857 -1.633501 c 0,-0.110346 -0.09223,-0.203335 -0.20274,-0.203335 h -2.13342 c -0.11005,0 -0.20336,0.09299 -0.20336,0.203335 v 1.633501 1.051857 1.63381 c 0,0.110347 0.09331,0.202716 0.20336,0.202716 z M 30.96586,16.762198 c -1.13398,1.087503 -2.63903,1.68697 -4.24049,1.68697 h -8.347061 v 1.63381 c 0,0.689356 -0.564975,1.254572 -1.255345,1.254572 h -2.133265 c -0.69006,0 -1.25488,-0.565061 -1.25488,-1.254572 v -1.63381 H 5.3872988 c -1.60115,0 -3.1065101,-0.599467 -4.2403351,-1.68697 C 0.93151365,16.555299 0.73435365,16.33569 0.55641364,16.105233 v 11.389406 c 0,1.157554 0.94705006,2.103714 2.10397006,2.103714 H 29.45275 c 1.156765,0 2.10366,-0.94616 2.10366,-2.103714 V 16.105233 c -0.17825,0.230457 -0.374635,0.450066 -0.59055,0.656965 z M 20.907289,2.6567484 C 20.496229,2.2457385 19.957604,2.0403885 19.419444,2.0403885 h -6.72545 c -0.53847,0 -1.077405,0.20535 -1.488155,0.6163599 -0.41044,0.4106999 -0.61597,0.9491042 -0.61597,1.4873536 v 1.0518567 h 1.787925 V 4.144102 c 0,-0.059668 0.01628,-0.1469221 0.093,-0.2231728 0.07595,-0.076251 0.16306,-0.092834 0.2232,-0.092834 h 6.725605 c 0.05921,0 0.14663,0.016583 0.222735,0.092834 0.07657,0.076251 0.09285,0.163505 0.09285,0.2231728 v 1.0518567 h 1.787925 V 4.144102 c -1.6e-4,-0.5382494 -0.20538,-1.0764987 -0.61582,-1.4873536 z"
     id="path2"
     inkscape:connector-curvature="0"
     style="fill:#aa0000;stroke:#ffffff;stroke-width:1;stroke-opacity:1" /></svg>