<?xml version="1.0" encoding="UTF-8" standalone="no"?>
<svg
   xmlns:dc="http://purl.org/dc/elements/1.1/"
   xmlns:cc="http://creativecommons.org/ns#"
   xmlns:rdf="http://www.w3.org/1999/02/22-rdf-syntax-ns#"
   xmlns:svg="http://www.w3.org/2000/svg"
   xmlns="http://www.w3.org/2000/svg"
   xmlns:sodipodi="http://sodipodi.sourceforge.net/DTD/sodipodi-0.dtd"
   xmlns:inkscape="http://www.inkscape.org/namespaces/inkscape"
   id="Layer_1_1_"
   version="1.1"
   viewBox="0 0 16 16"
   xml:space="preserve"
   sodipodi:docname="asbru_cluster_manager_off.svg"
   inkscape:version="0.92.3 (2405546, 2018-03-11)"
   width="16"
   height="16"><metadata
     id="metadata9"><rdf:RDF><cc:Work
         rdf:about=""><dc:format>image/svg+xml</dc:format><dc:type
           rdf:resource="http://purl.org/dc/dcmitype/StillImage" /><dc:title></dc:title></cc:Work></rdf:RDF></metadata><defs
     id="defs7" /><sodipodi:namedview
     pagecolor="#ffffff"
     bordercolor="#666666"
     borderopacity="1"
     objecttolerance="10"
     gridtolerance="10"
     guidetolerance="10"
     inkscape:pageopacity="0"
     inkscape:pageshadow="2"
     inkscape:window-width="1920"
     inkscape:window-height="1021"
     id="namedview5"
     showgrid="false"
     inkscape:zoom="52.125"
     inkscape:cx="8.3864337"
     inkscape:cy="8"
     inkscape:window-x="0"
     inkscape:window-y="30"
     inkscape:window-maximized="1"
     inkscape:current-layer="Layer_1_1_" /><path
     d="m 13.266949,4.4830516 c 0.966876,0 1.75,-0.7831245 1.75,-1.7500001 0,-0.9668745 -0.783124,-1.75 -1.75,-1.75 -0.966875,0 -1.75,0.7831255 -1.75,1.75 0,0.49175 0.203876,0.9345001 0.530251,1.2521256 l -1.380751,2.4158748 c -0.28175,-0.10325 -0.581875,-0.168 -0.8995004,-0.168 -0.7,0 -1.3326254,0.27825 -1.8033754,0.725374 L 4.3839488,4.2739261 c 0.084875,-0.2056245 0.133,-0.4296245 0.133,-0.6658745 0,-0.9668747 -0.783125,-1.7500001 -1.7499998,-1.7500001 -0.9668749,0 -1.7499999,0.7831254 -1.7499999,1.7500001 0,0.9668745 0.783125,1.7500003 1.7499999,1.7500003 0.4129999,0 0.7874999,-0.1487505 1.0867499,-0.3876258 l 3.5892497,2.6923758 c -0.1863754,0.359624 -0.301,0.762124 -0.301,1.19525 0,0.273874 0.054249,0.5337499 0.1321246,0.7822499 L 3.5194489,11.658925 C 3.2901989,11.54955 3.037324,11.48305 2.766949,11.48305 c -0.9668749,0 -1.7499999,0.783124 -1.7499999,1.75 0,0.966875 0.783125,1.75 1.7499999,1.75 0.9668748,0 1.7499998,-0.783125 1.7499998,-1.75 0,-0.355249 -0.1076249,-0.685125 -0.2896249,-0.961625 l 3.4413747,-1.850624 c 0.4786246,0.641374 1.2363746,1.062249 2.09825,1.062249 0.4357514,0 0.8408764,-0.116375 1.2031254,-0.3045 l 0.854875,1.064875 c -0.193375,0.281749 -0.308,0.622125 -0.308,0.989625 0,0.966875 0.783125,1.75 1.75,1.75 0.966876,0 1.75,-0.783125 1.75,-1.75 0,-0.966876 -0.783124,-1.75 -1.75,-1.75 -0.280875,0 -0.5425,0.07263 -0.777875,0.189875 l -0.817249,-1.0185 c 0.443624,-0.469875 0.720124,-1.0989991 0.720124,-1.7963731 0,-0.81725 -0.3815,-1.53825 -0.966875,-2.0195 l 1.385125,-2.4237503 c 0.146126,0.040245 0.2975,0.068245 0.45675,0.068245 z"
     id="path2"
     style="fill:#1a1a1a;stroke:#cccccc;stroke-width:1.99999988;stroke-miterlimit:4;stroke-dasharray:none;stroke-opacity:1"
     inkscape:connector-curvature="0" /></svg>